# MagicaVoxel @ Ephtracy

# material
mtllib Box_2.mtl
usemtl palette

# normals
vn -1 0 0
vn 1 0 0
vn 0 0 1
vn 0 0 -1
vn 0 -1 0
vn 0 1 0

# texcoords
vt 0.970703 0.5
vt 0.974609 0.5
vt 0.978516 0.5
vt 0.982422 0.5

# verts
v -20 0 10
v -20 0 -10
v -20 1 9
v -20 1 -9
v -20 9 9
v -20 9 -9
v -20 10 10
v -20 10 -10
v 20 0 10
v 20 0 -10
v 20 1 9
v 20 1 -9
v 20 9 9
v 20 9 -9
v 20 10 10
v 20 10 -10
v -20 0 10
v -20 10 10
v -19 1 10
v -19 9 10
v -2 6 10
v -2 8 10
v -1 2 10
v -1 3 10
v -1 4 10
v -1 5 10
v -1 6 10
v -1 7 10
v 1 2 10
v 1 3 10
v 1 5 10
v 1 7 10
v 2 4 10
v 2 8 10
v 19 1 10
v 19 9 10
v 20 0 10
v 20 10 10
v -20 0 -10
v -20 10 -10
v -19 1 -10
v -19 9 -10
v 19 1 -10
v 19 9 -10
v 20 0 -10
v 20 10 -10
v -20 0 10
v 20 0 10
v -19 0 9
v 19 0 9
v -19 0 -9
v 19 0 -9
v -20 0 -10
v 20 0 -10
v -20 10 10
v 20 10 10
v -19 10 9
v 19 10 9
v 1 10 5
v 3 10 5
v 0 10 4
v 1 10 4
v 2 10 4
v -1 10 3
v 0 10 3
v 2 10 3
v 3 10 3
v -4 10 2
v -2 10 2
v -1 10 2
v 1 10 2
v 2 10 2
v 3 10 2
v -5 10 1
v -4 10 1
v -2 10 1
v 1 10 1
v 2 10 1
v -6 10 -0
v -5 10 -0
v 2 10 -0
v 3 10 -0
v 4 10 -0
v 5 10 -0
v -5 10 -1
v 1 10 -1
v 2 10 -1
v 3 10 -1
v 4 10 -1
v 5 10 -1
v 6 10 -1
v -6 10 -2
v 1 10 -2
v 2 10 -2
v 3 10 -2
v 4 10 -2
v 5 10 -2
v 6 10 -2
v 1 10 -3
v 2 10 -3
v 3 10 -3
v 4 10 -3
v 5 10 -3
v 1 10 -4
v 2 10 -4
v 3 10 -4
v 4 10 -4
v 2 10 -5
v 3 10 -5
v -19 10 -9
v 19 10 -9
v -20 10 -10
v 20 10 -10

# faces
f 3/3/1 2/3/1 1/3/1
f 4/3/1 2/3/1 3/3/1
f 5/3/1 3/3/1 1/3/1
f 5/1/1 4/1/1 3/1/1
f 6/3/1 2/3/1 4/3/1
f 6/1/1 4/1/1 5/1/1
f 7/3/1 5/3/1 1/3/1
f 7/3/1 6/3/1 5/3/1
f 8/3/1 2/3/1 6/3/1
f 8/3/1 6/3/1 7/3/1
f 9/3/2 10/3/2 11/3/2
f 11/3/2 10/3/2 12/3/2
f 9/3/2 11/3/2 13/3/2
f 11/1/2 12/1/2 13/1/2
f 12/3/2 10/3/2 14/3/2
f 13/1/2 12/1/2 14/1/2
f 9/3/2 13/3/2 15/3/2
f 13/3/2 14/3/2 15/3/2
f 14/3/2 10/3/2 16/3/2
f 15/3/2 14/3/2 16/3/2
f 19/3/3 18/3/3 17/3/3
f 20/3/3 18/3/3 19/3/3
f 21/1/3 20/1/3 19/1/3
f 22/1/3 20/1/3 21/1/3
f 23/1/3 21/1/3 19/1/3
f 24/1/3 21/1/3 23/1/3
f 25/1/3 21/1/3 24/1/3
f 26/1/3 21/1/3 25/1/3
f 27/4/3 22/4/3 21/4/3
f 27/1/3 21/1/3 26/1/3
f 28/4/3 22/4/3 27/4/3
f 29/1/3 23/1/3 19/1/3
f 29/4/3 24/4/3 23/4/3
f 30/1/3 25/1/3 24/1/3
f 30/4/3 24/4/3 29/4/3
f 31/4/3 26/4/3 25/4/3
f 31/1/3 28/1/3 27/1/3
f 31/1/3 27/1/3 26/1/3
f 32/4/3 22/4/3 28/4/3
f 32/1/3 28/1/3 31/1/3
f 33/1/3 25/1/3 30/1/3
f 33/4/3 31/4/3 25/4/3
f 33/4/3 32/4/3 31/4/3
f 33/1/3 30/1/3 29/1/3
f 34/1/3 20/1/3 22/1/3
f 34/4/3 32/4/3 33/4/3
f 34/4/3 22/4/3 32/4/3
f 35/3/3 19/3/3 17/3/3
f 35/1/3 33/1/3 29/1/3
f 35/1/3 34/1/3 33/1/3
f 35/1/3 29/1/3 19/1/3
f 36/1/3 20/1/3 34/1/3
f 36/1/3 34/1/3 35/1/3
f 36/3/3 18/3/3 20/3/3
f 37/3/3 35/3/3 17/3/3
f 37/3/3 36/3/3 35/3/3
f 38/3/3 18/3/3 36/3/3
f 38/3/3 36/3/3 37/3/3
f 39/3/4 40/3/4 41/3/4
f 41/3/4 40/3/4 42/3/4
f 39/3/4 41/3/4 43/3/4
f 41/1/4 42/1/4 43/1/4
f 42/3/4 40/3/4 44/3/4
f 43/1/4 42/1/4 44/1/4
f 39/3/4 43/3/4 45/3/4
f 43/3/4 44/3/4 45/3/4
f 44/3/4 40/3/4 46/3/4
f 45/3/4 44/3/4 46/3/4
f 49/3/5 48/3/5 47/3/5
f 50/3/5 48/3/5 49/3/5
f 51/3/5 49/3/5 47/3/5
f 51/1/5 50/1/5 49/1/5
f 52/3/5 48/3/5 50/3/5
f 52/1/5 50/1/5 51/1/5
f 53/3/5 51/3/5 47/3/5
f 53/3/5 52/3/5 51/3/5
f 54/3/5 48/3/5 52/3/5
f 54/3/5 52/3/5 53/3/5
f 55/3/6 56/3/6 57/3/6
f 57/3/6 56/3/6 58/3/6
f 57/1/6 58/1/6 59/1/6
f 59/1/6 58/1/6 60/1/6
f 57/1/6 59/1/6 61/1/6
f 59/3/6 60/3/6 62/3/6
f 61/1/6 59/1/6 62/1/6
f 62/3/6 60/3/6 63/3/6
f 57/1/6 61/1/6 64/1/6
f 61/4/6 62/4/6 65/4/6
f 64/1/6 61/1/6 65/1/6
f 62/4/6 63/4/6 65/4/6
f 63/3/6 60/3/6 66/3/6
f 65/4/6 63/4/6 66/4/6
f 60/1/6 58/1/6 67/1/6
f 66/3/6 60/3/6 67/3/6
f 57/1/6 64/1/6 68/1/6
f 68/1/6 64/1/6 69/1/6
f 65/4/6 66/4/6 70/4/6
f 69/1/6 64/1/6 70/1/6
f 64/4/6 65/4/6 70/4/6
f 70/4/6 66/4/6 71/4/6
f 66/1/6 67/1/6 72/1/6
f 71/4/6 66/4/6 72/4/6
f 67/1/6 58/1/6 73/1/6
f 72/1/6 67/1/6 73/1/6
f 57/1/6 68/1/6 74/1/6
f 68/3/6 69/3/6 75/3/6
f 74/1/6 68/1/6 75/1/6
f 70/4/6 71/4/6 76/4/6
f 75/3/6 69/3/6 76/3/6
f 69/4/6 70/4/6 76/4/6
f 71/3/6 72/3/6 77/3/6
f 76/4/6 71/4/6 77/4/6
f 72/3/6 73/3/6 77/3/6
f 77/3/6 73/3/6 78/3/6
f 57/1/6 74/1/6 79/1/6
f 75/4/6 76/4/6 80/4/6
f 79/1/6 74/1/6 80/1/6
f 74/4/6 75/4/6 80/4/6
f 77/4/6 78/4/6 80/4/6
f 76/4/6 77/4/6 80/4/6
f 78/3/6 73/3/6 81/3/6
f 80/4/6 78/4/6 81/4/6
f 73/1/6 58/1/6 82/1/6
f 81/3/6 73/3/6 82/3/6
f 82/1/6 58/1/6 83/1/6
f 83/1/6 58/1/6 84/1/6
f 79/2/6 80/2/6 85/2/6
f 80/4/6 81/4/6 85/4/6
f 85/4/6 81/4/6 86/4/6
f 81/1/6 82/1/6 87/1/6
f 86/4/6 81/4/6 87/4/6
f 82/1/6 83/1/6 87/1/6
f 87/1/6 83/1/6 88/1/6
f 83/3/6 84/3/6 89/3/6
f 88/1/6 83/1/6 89/1/6
f 84/1/6 58/1/6 90/1/6
f 89/3/6 84/3/6 90/3/6
f 90/1/6 58/1/6 91/1/6
f 57/1/6 79/1/6 92/1/6
f 85/2/6 86/2/6 92/2/6
f 79/2/6 85/2/6 92/2/6
f 87/1/6 88/1/6 93/1/6
f 92/2/6 86/2/6 93/2/6
f 86/1/6 87/1/6 93/1/6
f 93/1/6 88/1/6 94/1/6
f 88/4/6 89/4/6 95/4/6
f 94/1/6 88/1/6 95/1/6
f 90/3/6 91/3/6 96/3/6
f 95/4/6 89/4/6 96/4/6
f 89/3/6 90/3/6 96/3/6
f 96/3/6 91/3/6 97/3/6
f 91/1/6 58/1/6 98/1/6
f 97/3/6 91/3/6 98/3/6
f 93/1/6 94/1/6 99/1/6
f 92/1/6 93/1/6 99/1/6
f 96/4/6 97/4/6 100/4/6
f 99/1/6 94/1/6 100/1/6
f 94/4/6 95/4/6 100/4/6
f 95/4/6 96/4/6 100/4/6
f 100/4/6 97/4/6 101/4/6
f 101/4/6 97/4/6 102/4/6
f 97/1/6 98/1/6 103/1/6
f 102/4/6 97/4/6 103/4/6
f 92/1/6 99/1/6 104/1/6
f 99/2/6 100/2/6 104/2/6
f 100/2/6 101/2/6 104/2/6
f 104/2/6 101/2/6 105/2/6
f 101/4/6 102/4/6 106/4/6
f 105/2/6 101/2/6 106/2/6
f 102/1/6 103/1/6 107/1/6
f 106/4/6 102/4/6 107/4/6
f 104/1/6 105/1/6 108/1/6
f 105/2/6 106/2/6 108/2/6
f 106/1/6 107/1/6 109/1/6
f 108/2/6 106/2/6 109/2/6
f 55/3/6 57/3/6 110/3/6
f 57/1/6 92/1/6 110/1/6
f 108/1/6 109/1/6 110/1/6
f 92/1/6 104/1/6 110/1/6
f 104/1/6 108/1/6 110/1/6
f 109/1/6 107/1/6 111/1/6
f 110/1/6 109/1/6 111/1/6
f 58/3/6 56/3/6 111/3/6
f 103/1/6 98/1/6 111/1/6
f 107/1/6 103/1/6 111/1/6
f 98/1/6 58/1/6 111/1/6
f 55/3/6 110/3/6 112/3/6
f 110/3/6 111/3/6 112/3/6
f 111/3/6 56/3/6 113/3/6
f 112/3/6 111/3/6 113/3/6
