# MagicaVoxel @ Ephtracy

# material
mtllib Flare.mtl
usemtl palette

# normals
vn -1 0 0
vn 1 0 0
vn 0 0 1
vn 0 0 -1
vn 0 -1 0
vn 0 1 0

# texcoords
vt 0.970703 0.5
vt 0.974609 0.5

# verts
v -2 1 10
v -2 1 9
v -2 1 8
v -2 1 6
v -2 1 5
v -2 1 3
v -2 1 2
v -2 1 -0
v -2 1 -1
v -2 1 -3
v -2 1 -4
v -2 1 -6
v -2 1 -7
v -2 1 -9
v -2 1 -10
v -2 3 10
v -2 3 9
v -2 3 8
v -2 3 6
v -2 3 5
v -2 3 3
v -2 3 2
v -2 3 -0
v -2 3 -1
v -2 3 -3
v -2 3 -4
v -2 3 -6
v -2 3 -7
v -2 3 -9
v -2 3 -10
v -1 0 10
v -1 0 9
v -1 0 -10
v -1 1 10
v -1 1 9
v -1 1 8
v -1 1 6
v -1 1 5
v -1 1 3
v -1 1 2
v -1 1 -0
v -1 1 -1
v -1 1 -3
v -1 1 -4
v -1 1 -6
v -1 1 -7
v -1 1 -9
v -1 1 -10
v -1 3 10
v -1 3 9
v -1 3 8
v -1 3 6
v -1 3 5
v -1 3 3
v -1 3 2
v -1 3 -0
v -1 3 -1
v -1 3 -3
v -1 3 -4
v -1 3 -6
v -1 3 -7
v -1 3 -9
v -1 3 -10
v -1 4 10
v -1 4 9
v -1 4 -10
v 1 0 10
v 1 0 9
v 1 0 -10
v 1 1 10
v 1 1 9
v 1 1 8
v 1 1 6
v 1 1 5
v 1 1 3
v 1 1 2
v 1 1 -0
v 1 1 -1
v 1 1 -3
v 1 1 -4
v 1 1 -6
v 1 1 -7
v 1 1 -9
v 1 1 -10
v 1 3 10
v 1 3 9
v 1 3 8
v 1 3 6
v 1 3 5
v 1 3 3
v 1 3 2
v 1 3 -0
v 1 3 -1
v 1 3 -3
v 1 3 -4
v 1 3 -6
v 1 3 -7
v 1 3 -9
v 1 3 -10
v 1 4 10
v 1 4 9
v 1 4 -10
v 2 1 10
v 2 1 9
v 2 1 8
v 2 1 6
v 2 1 5
v 2 1 3
v 2 1 2
v 2 1 -0
v 2 1 -1
v 2 1 -3
v 2 1 -4
v 2 1 -6
v 2 1 -7
v 2 1 -9
v 2 1 -10
v 2 3 10
v 2 3 9
v 2 3 8
v 2 3 6
v 2 3 5
v 2 3 3
v 2 3 2
v 2 3 -0
v 2 3 -1
v 2 3 -3
v 2 3 -4
v 2 3 -6
v 2 3 -7
v 2 3 -9
v 2 3 -10
v -2 1 10
v -2 3 10
v -1 0 10
v -1 1 10
v -1 3 10
v -1 4 10
v 1 0 10
v 1 1 10
v 1 3 10
v 1 4 10
v 2 1 10
v 2 3 10
v -2 1 -10
v -2 3 -10
v -1 0 -10
v -1 1 -10
v -1 3 -10
v -1 4 -10
v 1 0 -10
v 1 1 -10
v 1 3 -10
v 1 4 -10
v 2 1 -10
v 2 3 -10
v -1 0 10
v 1 0 10
v -1 0 9
v 1 0 9
v -1 0 -10
v 1 0 -10
v -2 1 10
v -1 1 10
v 1 1 10
v 2 1 10
v -2 1 9
v -1 1 9
v 1 1 9
v 2 1 9
v -2 1 8
v -1 1 8
v 1 1 8
v 2 1 8
v -2 1 6
v -1 1 6
v 1 1 6
v 2 1 6
v -2 1 5
v -1 1 5
v 1 1 5
v 2 1 5
v -2 1 3
v -1 1 3
v 1 1 3
v 2 1 3
v -2 1 2
v -1 1 2
v 1 1 2
v 2 1 2
v -2 1 -0
v -1 1 -0
v 1 1 -0
v 2 1 -0
v -2 1 -1
v -1 1 -1
v 1 1 -1
v 2 1 -1
v -2 1 -3
v -1 1 -3
v 1 1 -3
v 2 1 -3
v -2 1 -4
v -1 1 -4
v 1 1 -4
v 2 1 -4
v -2 1 -6
v -1 1 -6
v 1 1 -6
v 2 1 -6
v -2 1 -7
v -1 1 -7
v 1 1 -7
v 2 1 -7
v -2 1 -9
v -1 1 -9
v 1 1 -9
v 2 1 -9
v -2 1 -10
v -1 1 -10
v 1 1 -10
v 2 1 -10
v -2 3 10
v -1 3 10
v 1 3 10
v 2 3 10
v -2 3 9
v -1 3 9
v 1 3 9
v 2 3 9
v -2 3 8
v -1 3 8
v 1 3 8
v 2 3 8
v -2 3 6
v -1 3 6
v 1 3 6
v 2 3 6
v -2 3 5
v -1 3 5
v 1 3 5
v 2 3 5
v -2 3 3
v -1 3 3
v 1 3 3
v 2 3 3
v -2 3 2
v -1 3 2
v 1 3 2
v 2 3 2
v -2 3 -0
v -1 3 -0
v 1 3 -0
v 2 3 -0
v -2 3 -1
v -1 3 -1
v 1 3 -1
v 2 3 -1
v -2 3 -3
v -1 3 -3
v 1 3 -3
v 2 3 -3
v -2 3 -4
v -1 3 -4
v 1 3 -4
v 2 3 -4
v -2 3 -6
v -1 3 -6
v 1 3 -6
v 2 3 -6
v -2 3 -7
v -1 3 -7
v 1 3 -7
v 2 3 -7
v -2 3 -9
v -1 3 -9
v 1 3 -9
v 2 3 -9
v -2 3 -10
v -1 3 -10
v 1 3 -10
v 2 3 -10
v -1 4 10
v 1 4 10
v -1 4 9
v 1 4 9
v -1 4 -10
v 1 4 -10

# faces
f 16/2/1 2/2/1 1/2/1
f 17/1/1 3/1/1 2/1/1
f 17/2/1 2/2/1 16/2/1
f 18/2/1 4/2/1 3/2/1
f 18/1/1 3/1/1 17/1/1
f 19/1/1 5/1/1 4/1/1
f 19/2/1 4/2/1 18/2/1
f 20/2/1 6/2/1 5/2/1
f 20/1/1 5/1/1 19/1/1
f 21/1/1 7/1/1 6/1/1
f 21/2/1 6/2/1 20/2/1
f 22/2/1 8/2/1 7/2/1
f 22/1/1 7/1/1 21/1/1
f 23/1/1 9/1/1 8/1/1
f 23/2/1 8/2/1 22/2/1
f 24/2/1 10/2/1 9/2/1
f 24/1/1 9/1/1 23/1/1
f 25/1/1 11/1/1 10/1/1
f 25/2/1 10/2/1 24/2/1
f 26/2/1 12/2/1 11/2/1
f 26/1/1 11/1/1 25/1/1
f 27/1/1 13/1/1 12/1/1
f 27/2/1 12/2/1 26/2/1
f 28/2/1 14/2/1 13/2/1
f 28/1/1 13/1/1 27/1/1
f 29/1/1 15/1/1 14/1/1
f 29/2/1 14/2/1 28/2/1
f 30/1/1 15/1/1 29/1/1
f 34/2/1 32/2/1 31/2/1
f 35/1/1 33/1/1 32/1/1
f 35/2/1 32/2/1 34/2/1
f 36/1/1 33/1/1 35/1/1
f 37/1/1 33/1/1 36/1/1
f 38/1/1 33/1/1 37/1/1
f 39/1/1 33/1/1 38/1/1
f 40/1/1 33/1/1 39/1/1
f 41/1/1 33/1/1 40/1/1
f 42/1/1 33/1/1 41/1/1
f 43/1/1 33/1/1 42/1/1
f 44/1/1 33/1/1 43/1/1
f 45/1/1 33/1/1 44/1/1
f 46/1/1 33/1/1 45/1/1
f 47/1/1 33/1/1 46/1/1
f 48/1/1 33/1/1 47/1/1
f 64/2/1 50/2/1 49/2/1
f 65/1/1 63/1/1 62/1/1
f 65/2/1 50/2/1 64/2/1
f 65/1/1 51/1/1 50/1/1
f 65/1/1 62/1/1 61/1/1
f 65/1/1 61/1/1 60/1/1
f 65/1/1 60/1/1 59/1/1
f 65/1/1 59/1/1 58/1/1
f 65/1/1 58/1/1 57/1/1
f 65/1/1 57/1/1 56/1/1
f 65/1/1 56/1/1 55/1/1
f 65/1/1 55/1/1 54/1/1
f 65/1/1 54/1/1 53/1/1
f 65/1/1 53/1/1 52/1/1
f 65/1/1 52/1/1 51/1/1
f 66/1/1 63/1/1 65/1/1
f 67/2/2 68/2/2 70/2/2
f 68/1/2 69/1/2 71/1/2
f 70/2/2 68/2/2 71/2/2
f 71/1/2 69/1/2 72/1/2
f 72/1/2 69/1/2 73/1/2
f 73/1/2 69/1/2 74/1/2
f 74/1/2 69/1/2 75/1/2
f 75/1/2 69/1/2 76/1/2
f 76/1/2 69/1/2 77/1/2
f 77/1/2 69/1/2 78/1/2
f 78/1/2 69/1/2 79/1/2
f 79/1/2 69/1/2 80/1/2
f 80/1/2 69/1/2 81/1/2
f 81/1/2 69/1/2 82/1/2
f 82/1/2 69/1/2 83/1/2
f 83/1/2 69/1/2 84/1/2
f 85/2/2 86/2/2 100/2/2
f 98/1/2 99/1/2 101/1/2
f 100/2/2 86/2/2 101/2/2
f 86/1/2 87/1/2 101/1/2
f 97/1/2 98/1/2 101/1/2
f 96/1/2 97/1/2 101/1/2
f 95/1/2 96/1/2 101/1/2
f 94/1/2 95/1/2 101/1/2
f 93/1/2 94/1/2 101/1/2
f 92/1/2 93/1/2 101/1/2
f 91/1/2 92/1/2 101/1/2
f 90/1/2 91/1/2 101/1/2
f 89/1/2 90/1/2 101/1/2
f 88/1/2 89/1/2 101/1/2
f 87/1/2 88/1/2 101/1/2
f 101/1/2 99/1/2 102/1/2
f 103/2/2 104/2/2 118/2/2
f 104/1/2 105/1/2 119/1/2
f 118/2/2 104/2/2 119/2/2
f 105/2/2 106/2/2 120/2/2
f 119/1/2 105/1/2 120/1/2
f 106/1/2 107/1/2 121/1/2
f 120/2/2 106/2/2 121/2/2
f 107/2/2 108/2/2 122/2/2
f 121/1/2 107/1/2 122/1/2
f 108/1/2 109/1/2 123/1/2
f 122/2/2 108/2/2 123/2/2
f 109/2/2 110/2/2 124/2/2
f 123/1/2 109/1/2 124/1/2
f 110/1/2 111/1/2 125/1/2
f 124/2/2 110/2/2 125/2/2
f 111/2/2 112/2/2 126/2/2
f 125/1/2 111/1/2 126/1/2
f 112/1/2 113/1/2 127/1/2
f 126/2/2 112/2/2 127/2/2
f 113/2/2 114/2/2 128/2/2
f 127/1/2 113/1/2 128/1/2
f 114/1/2 115/1/2 129/1/2
f 128/2/2 114/2/2 129/2/2
f 115/2/2 116/2/2 130/2/2
f 129/1/2 115/1/2 130/1/2
f 116/1/2 117/1/2 131/1/2
f 130/2/2 116/2/2 131/2/2
f 131/1/2 117/1/2 132/1/2
f 136/2/3 134/2/3 133/2/3
f 137/2/3 134/2/3 136/2/3
f 139/2/3 136/2/3 135/2/3
f 139/2/3 138/2/3 137/2/3
f 139/2/3 137/2/3 136/2/3
f 140/2/3 138/2/3 139/2/3
f 141/2/3 138/2/3 140/2/3
f 142/2/3 138/2/3 141/2/3
f 143/2/3 141/2/3 140/2/3
f 144/2/3 141/2/3 143/2/3
f 145/1/4 146/1/4 148/1/4
f 148/1/4 146/1/4 149/1/4
f 147/1/4 148/1/4 151/1/4
f 149/1/4 150/1/4 151/1/4
f 148/1/4 149/1/4 151/1/4
f 151/1/4 150/1/4 152/1/4
f 152/1/4 150/1/4 153/1/4
f 153/1/4 150/1/4 154/1/4
f 152/1/4 153/1/4 155/1/4
f 155/1/4 153/1/4 156/1/4
f 159/2/5 158/2/5 157/2/5
f 160/2/5 158/2/5 159/2/5
f 161/1/5 160/1/5 159/1/5
f 162/1/5 160/1/5 161/1/5
f 167/2/5 164/2/5 163/2/5
f 168/2/5 164/2/5 167/2/5
f 169/2/5 166/2/5 165/2/5
f 170/2/5 166/2/5 169/2/5
f 171/1/5 168/1/5 167/1/5
f 172/1/5 168/1/5 171/1/5
f 173/1/5 170/1/5 169/1/5
f 174/1/5 170/1/5 173/1/5
f 175/2/5 172/2/5 171/2/5
f 176/2/5 172/2/5 175/2/5
f 177/2/5 174/2/5 173/2/5
f 178/2/5 174/2/5 177/2/5
f 179/1/5 176/1/5 175/1/5
f 180/1/5 176/1/5 179/1/5
f 181/1/5 178/1/5 177/1/5
f 182/1/5 178/1/5 181/1/5
f 183/2/5 180/2/5 179/2/5
f 184/2/5 180/2/5 183/2/5
f 185/2/5 182/2/5 181/2/5
f 186/2/5 182/2/5 185/2/5
f 187/1/5 184/1/5 183/1/5
f 188/1/5 184/1/5 187/1/5
f 189/1/5 186/1/5 185/1/5
f 190/1/5 186/1/5 189/1/5
f 191/2/5 188/2/5 187/2/5
f 192/2/5 188/2/5 191/2/5
f 193/2/5 190/2/5 189/2/5
f 194/2/5 190/2/5 193/2/5
f 195/1/5 192/1/5 191/1/5
f 196/1/5 192/1/5 195/1/5
f 197/1/5 194/1/5 193/1/5
f 198/1/5 194/1/5 197/1/5
f 199/2/5 196/2/5 195/2/5
f 200/2/5 196/2/5 199/2/5
f 201/2/5 198/2/5 197/2/5
f 202/2/5 198/2/5 201/2/5
f 203/1/5 200/1/5 199/1/5
f 204/1/5 200/1/5 203/1/5
f 205/1/5 202/1/5 201/1/5
f 206/1/5 202/1/5 205/1/5
f 207/2/5 204/2/5 203/2/5
f 208/2/5 204/2/5 207/2/5
f 209/2/5 206/2/5 205/2/5
f 210/2/5 206/2/5 209/2/5
f 211/1/5 208/1/5 207/1/5
f 212/1/5 208/1/5 211/1/5
f 213/1/5 210/1/5 209/1/5
f 214/1/5 210/1/5 213/1/5
f 215/2/5 212/2/5 211/2/5
f 216/2/5 212/2/5 215/2/5
f 217/2/5 214/2/5 213/2/5
f 218/2/5 214/2/5 217/2/5
f 219/1/5 216/1/5 215/1/5
f 220/1/5 216/1/5 219/1/5
f 221/1/5 218/1/5 217/1/5
f 222/1/5 218/1/5 221/1/5
f 223/2/6 224/2/6 227/2/6
f 227/2/6 224/2/6 228/2/6
f 225/2/6 226/2/6 229/2/6
f 229/2/6 226/2/6 230/2/6
f 227/1/6 228/1/6 231/1/6
f 231/1/6 228/1/6 232/1/6
f 229/1/6 230/1/6 233/1/6
f 233/1/6 230/1/6 234/1/6
f 231/2/6 232/2/6 235/2/6
f 235/2/6 232/2/6 236/2/6
f 233/2/6 234/2/6 237/2/6
f 237/2/6 234/2/6 238/2/6
f 235/1/6 236/1/6 239/1/6
f 239/1/6 236/1/6 240/1/6
f 237/1/6 238/1/6 241/1/6
f 241/1/6 238/1/6 242/1/6
f 239/2/6 240/2/6 243/2/6
f 243/2/6 240/2/6 244/2/6
f 241/2/6 242/2/6 245/2/6
f 245/2/6 242/2/6 246/2/6
f 243/1/6 244/1/6 247/1/6
f 247/1/6 244/1/6 248/1/6
f 245/1/6 246/1/6 249/1/6
f 249/1/6 246/1/6 250/1/6
f 247/2/6 248/2/6 251/2/6
f 251/2/6 248/2/6 252/2/6
f 249/2/6 250/2/6 253/2/6
f 253/2/6 250/2/6 254/2/6
f 251/1/6 252/1/6 255/1/6
f 255/1/6 252/1/6 256/1/6
f 253/1/6 254/1/6 257/1/6
f 257/1/6 254/1/6 258/1/6
f 255/2/6 256/2/6 259/2/6
f 259/2/6 256/2/6 260/2/6
f 257/2/6 258/2/6 261/2/6
f 261/2/6 258/2/6 262/2/6
f 259/1/6 260/1/6 263/1/6
f 263/1/6 260/1/6 264/1/6
f 261/1/6 262/1/6 265/1/6
f 265/1/6 262/1/6 266/1/6
f 263/2/6 264/2/6 267/2/6
f 267/2/6 264/2/6 268/2/6
f 265/2/6 266/2/6 269/2/6
f 269/2/6 266/2/6 270/2/6
f 267/1/6 268/1/6 271/1/6
f 271/1/6 268/1/6 272/1/6
f 269/1/6 270/1/6 273/1/6
f 273/1/6 270/1/6 274/1/6
f 271/2/6 272/2/6 275/2/6
f 275/2/6 272/2/6 276/2/6
f 273/2/6 274/2/6 277/2/6
f 277/2/6 274/2/6 278/2/6
f 275/1/6 276/1/6 279/1/6
f 279/1/6 276/1/6 280/1/6
f 277/1/6 278/1/6 281/1/6
f 281/1/6 278/1/6 282/1/6
f 283/2/6 284/2/6 285/2/6
f 285/2/6 284/2/6 286/2/6
f 285/1/6 286/1/6 287/1/6
f 287/1/6 286/1/6 288/1/6
