# MagicaVoxel @ Ephtracy

# material
mtllib Pistol_1.mtl
usemtl palette

# normals
vn -1 0 0
vn 1 0 0
vn 0 0 1
vn 0 0 -1
vn 0 -1 0
vn 0 1 0

# texcoords
vt 0.939453 0.5
vt 0.974609 0.5
vt 0.978516 0.5
vt 0.994141 0.5

# verts
v -2 0 -13
v -2 0 -22
v -2 1 -13
v -2 1 -22
v -2 2 -12
v -2 2 -22
v -2 3 -12
v -2 3 -13
v -2 5 -12
v -2 5 -13
v -2 8 -11
v -2 8 -12
v -2 8 -21
v -2 8 -22
v -2 11 -10
v -2 11 -11
v -2 11 -20
v -2 11 -21
v -2 14 -9
v -2 14 -10
v -2 14 -19
v -2 14 -20
v -2 16 4
v -2 16 -6
v -2 17 4
v -2 17 3
v -2 17 2
v -2 17 -5
v -2 17 -6
v -2 17 -9
v -2 17 -18
v -2 17 -19
v -2 18 -5
v -2 18 -8
v -2 20 -7
v -2 20 -8
v -2 21 -18
v -2 21 -19
v -2 22 13
v -2 22 3
v -2 22 2
v -2 22 -7
v -2 22 -19
v -2 22 -20
v -2 23 22
v -2 23 13
v -2 23 -20
v -2 23 -23
v -2 24 22
v -2 24 -11
v -2 24 -12
v -2 24 -13
v -2 24 -14
v -2 24 -15
v -2 24 -16
v -2 24 -17
v -2 24 -18
v -2 24 -19
v -2 24 -20
v -2 24 -23
v -2 25 -0
v -2 25 -7
v -2 26 23
v -2 26 22
v -2 26 -1
v -2 26 -6
v -2 28 23
v -2 28 22
v -2 29 22
v -2 29 -0
v -2 29 -1
v -2 29 -6
v -2 29 -7
v -2 29 -11
v -2 29 -12
v -2 29 -13
v -2 29 -14
v -2 29 -15
v -2 29 -16
v -2 29 -17
v -2 29 -18
v -2 29 -19
v -2 29 -20
v -2 29 -21
v -2 29 -22
v -2 29 -23
v -2 30 -21
v -2 30 -22
v -1 1 -13
v -1 1 -21
v -1 2 -13
v -1 2 -21
v -1 17 4
v -1 17 3
v -1 17 2
v -1 17 1
v -1 18 4
v -1 18 3
v -1 18 2
v -1 18 1
v -1 18 -3
v -1 18 -4
v -1 18 -7
v -1 18 -8
v -1 20 -3
v -1 20 -4
v -1 20 -7
v -1 20 -8
v -1 21 4
v -1 21 3
v -1 21 2
v -1 21 1
v -1 22 22
v -1 22 13
v -1 22 4
v -1 22 3
v -1 22 2
v -1 22 1
v -1 22 -4
v -1 22 -7
v -1 22 -20
v -1 22 -23
v -1 23 22
v -1 23 13
v -1 23 -20
v -1 23 -23
v -1 25 23
v -1 25 22
v -1 26 23
v -1 26 22
v -1 28 23
v -1 28 22
v -1 29 23
v -1 29 22
v -1 29 21
v -1 29 20
v -1 30 21
v -1 30 20
v 1 29 -21
v 1 29 -22
v 1 30 -21
v 1 30 -22
v -1 29 -21
v -1 29 -22
v -1 30 -21
v -1 30 -22
v 1 1 -13
v 1 1 -21
v 1 2 -13
v 1 2 -21
v 1 17 4
v 1 17 3
v 1 17 2
v 1 17 1
v 1 18 4
v 1 18 3
v 1 18 2
v 1 18 1
v 1 18 -3
v 1 18 -4
v 1 18 -7
v 1 18 -8
v 1 20 -3
v 1 20 -4
v 1 20 -7
v 1 20 -8
v 1 21 4
v 1 21 3
v 1 21 2
v 1 21 1
v 1 22 22
v 1 22 13
v 1 22 4
v 1 22 3
v 1 22 2
v 1 22 1
v 1 22 -4
v 1 22 -7
v 1 22 -20
v 1 22 -23
v 1 23 22
v 1 23 13
v 1 23 -20
v 1 23 -23
v 1 25 23
v 1 25 22
v 1 26 23
v 1 26 22
v 1 28 23
v 1 28 22
v 1 29 23
v 1 29 22
v 1 29 21
v 1 29 20
v 1 30 21
v 1 30 20
v 2 0 -13
v 2 0 -22
v 2 1 -13
v 2 1 -22
v 2 2 -12
v 2 2 -22
v 2 3 -12
v 2 3 -13
v 2 5 -12
v 2 5 -13
v 2 8 -11
v 2 8 -12
v 2 8 -21
v 2 8 -22
v 2 11 -10
v 2 11 -11
v 2 11 -20
v 2 11 -21
v 2 14 -9
v 2 14 -10
v 2 14 -19
v 2 14 -20
v 2 16 4
v 2 16 -6
v 2 17 4
v 2 17 3
v 2 17 2
v 2 17 -5
v 2 17 -6
v 2 17 -9
v 2 17 -18
v 2 17 -19
v 2 18 -5
v 2 18 -8
v 2 20 -7
v 2 20 -8
v 2 21 -18
v 2 21 -19
v 2 22 13
v 2 22 3
v 2 22 2
v 2 22 -7
v 2 22 -19
v 2 22 -20
v 2 23 22
v 2 23 13
v 2 23 -20
v 2 23 -23
v 2 24 22
v 2 24 -11
v 2 24 -12
v 2 24 -13
v 2 24 -14
v 2 24 -15
v 2 24 -16
v 2 24 -17
v 2 24 -18
v 2 24 -19
v 2 24 -20
v 2 24 -23
v 2 26 23
v 2 26 22
v 2 28 23
v 2 28 22
v 2 29 22
v 2 29 -11
v 2 29 -12
v 2 29 -13
v 2 29 -14
v 2 29 -15
v 2 29 -16
v 2 29 -17
v 2 29 -18
v 2 29 -19
v 2 29 -20
v 2 29 -21
v 2 29 -22
v 2 29 -23
v 2 30 -21
v 2 30 -22
v -2 26 23
v -2 28 23
v -1 25 23
v -1 26 23
v -1 28 23
v -1 29 23
v 1 25 23
v 1 26 23
v 1 28 23
v 1 29 23
v 2 26 23
v 2 28 23
v -2 23 22
v -2 24 22
v -2 26 22
v -2 28 22
v -2 29 22
v -1 22 22
v -1 23 22
v -1 25 22
v -1 26 22
v -1 28 22
v -1 29 22
v 1 22 22
v 1 23 22
v 1 25 22
v 1 26 22
v 1 28 22
v 1 29 22
v 2 23 22
v 2 24 22
v 2 26 22
v 2 28 22
v 2 29 22
v -1 29 21
v -1 30 21
v 1 29 21
v 1 30 21
v -2 22 13
v -2 23 13
v -1 22 13
v -1 23 13
v 1 22 13
v 1 23 13
v 2 22 13
v 2 23 13
v -2 16 4
v -2 17 4
v -1 17 4
v -1 18 4
v -1 21 4
v -1 22 4
v 1 17 4
v 1 18 4
v 1 21 4
v 1 22 4
v 2 16 4
v 2 17 4
v -2 17 3
v -2 22 3
v -1 17 3
v -1 18 3
v -1 21 3
v -1 22 3
v 1 17 3
v 1 18 3
v 1 21 3
v 1 22 3
v 2 17 3
v 2 22 3
v -1 18 -3
v -1 20 -3
v 1 18 -3
v 1 20 -3
v -1 20 -4
v -1 22 -4
v 1 20 -4
v 1 22 -4
v -2 17 -5
v -2 18 -5
v 2 17 -5
v 2 18 -5
v -2 20 -7
v -2 22 -7
v -1 18 -7
v -1 20 -7
v -1 22 -7
v 1 18 -7
v 1 20 -7
v 1 22 -7
v 2 20 -7
v 2 22 -7
v -2 18 -8
v -2 20 -8
v -1 18 -8
v -1 20 -8
v 1 18 -8
v 1 20 -8
v 2 18 -8
v 2 20 -8
v -2 14 -9
v -2 17 -9
v 2 14 -9
v 2 17 -9
v -2 11 -10
v -2 14 -10
v 2 11 -10
v 2 14 -10
v -2 8 -11
v -2 11 -11
v 2 8 -11
v 2 11 -11
v -2 2 -12
v -2 3 -12
v -2 5 -12
v -2 8 -12
v 2 2 -12
v 2 3 -12
v 2 5 -12
v 2 8 -12
v -2 0 -13
v -2 1 -13
v -2 3 -13
v -2 5 -13
v -1 1 -13
v -1 2 -13
v 1 1 -13
v 1 2 -13
v 2 0 -13
v 2 1 -13
v 2 3 -13
v 2 5 -13
v -2 29 -21
v -2 30 -21
v -1 29 -21
v -1 30 -21
v 1 29 -21
v 1 30 -21
v 2 29 -21
v 2 30 -21
v -1 29 20
v -1 30 20
v 1 29 20
v 1 30 20
v -2 17 2
v -2 22 2
v -1 17 2
v -1 18 2
v -1 21 2
v -1 22 2
v 1 17 2
v 1 18 2
v 1 21 2
v 1 22 2
v 2 17 2
v 2 22 2
v -1 17 1
v -1 18 1
v -1 21 1
v -1 22 1
v 1 17 1
v 1 18 1
v 1 21 1
v 1 22 1
v -1 18 -4
v -1 20 -4
v 1 18 -4
v 1 20 -4
v -2 16 -6
v -2 17 -6
v 2 16 -6
v 2 17 -6
v -2 17 -18
v -2 21 -18
v 2 17 -18
v 2 21 -18
v -2 14 -19
v -2 17 -19
v -2 21 -19
v -2 22 -19
v 2 14 -19
v 2 17 -19
v 2 21 -19
v 2 22 -19
v -2 11 -20
v -2 14 -20
v -2 22 -20
v -2 23 -20
v -1 22 -20
v -1 23 -20
v 1 22 -20
v 1 23 -20
v 2 11 -20
v 2 14 -20
v 2 22 -20
v 2 23 -20
v -2 8 -21
v -2 11 -21
v -1 1 -21
v -1 2 -21
v 1 1 -21
v 1 2 -21
v 2 8 -21
v 2 11 -21
v -2 0 -22
v -2 1 -22
v -2 2 -22
v -2 8 -22
v -2 29 -22
v -2 30 -22
v -1 29 -22
v -1 30 -22
v 1 29 -22
v 1 30 -22
v 2 0 -22
v 2 1 -22
v 2 2 -22
v 2 8 -22
v 2 29 -22
v 2 30 -22
v -2 23 -23
v -2 24 -23
v -2 29 -23
v -1 22 -23
v -1 23 -23
v 1 22 -23
v 1 23 -23
v 2 23 -23
v 2 24 -23
v 2 29 -23
v -2 0 -13
v 2 0 -13
v -2 0 -22
v 2 0 -22
v -2 2 -12
v 2 2 -12
v -1 2 -13
v 1 2 -13
v -1 2 -21
v 1 2 -21
v -2 2 -22
v 2 2 -22
v -2 5 -12
v 2 5 -12
v -2 5 -13
v 2 5 -13
v -2 8 -11
v 2 8 -11
v -2 8 -12
v 2 8 -12
v -2 11 -10
v 2 11 -10
v -2 11 -11
v 2 11 -11
v -2 14 -9
v 2 14 -9
v -2 14 -10
v 2 14 -10
v -2 16 4
v 2 16 4
v -2 16 -6
v 2 16 -6
v -2 17 -6
v 2 17 -6
v -2 17 -9
v 2 17 -9
v -1 18 -3
v 1 18 -3
v -1 18 -4
v 1 18 -4
v -1 20 -4
v 1 20 -4
v -2 20 -7
v -1 20 -7
v 1 20 -7
v 2 20 -7
v -2 20 -8
v -1 20 -8
v 1 20 -8
v 2 20 -8
v -1 21 4
v 1 21 4
v -1 21 3
v 1 21 3
v -1 21 2
v 1 21 2
v -1 21 1
v 1 21 1
v -2 21 -18
v 2 21 -18
v -2 21 -19
v 2 21 -19
v -1 22 22
v 1 22 22
v -2 22 13
v -1 22 13
v 1 22 13
v 2 22 13
v -1 22 4
v 1 22 4
v -2 22 3
v -1 22 3
v 1 22 3
v 2 22 3
v -2 22 2
v -1 22 2
v 1 22 2
v 2 22 2
v -1 22 1
v 1 22 1
v -1 22 -4
v 1 22 -4
v -2 22 -7
v -1 22 -7
v 1 22 -7
v 2 22 -7
v -2 22 -19
v 2 22 -19
v -2 22 -20
v -1 22 -20
v 1 22 -20
v 2 22 -20
v -1 22 -23
v 1 22 -23
v -2 23 22
v -1 23 22
v 1 23 22
v 2 23 22
v -2 23 13
v -1 23 13
v 1 23 13
v 2 23 13
v -2 23 -20
v -1 23 -20
v 1 23 -20
v 2 23 -20
v -2 23 -23
v -1 23 -23
v 1 23 -23
v 2 23 -23
v -1 25 23
v 1 25 23
v -1 25 22
v 1 25 22
v -2 26 23
v -1 26 23
v 1 26 23
v 2 26 23
v -2 26 22
v -1 26 22
v 1 26 22
v 2 26 22
v -2 1 -13
v -1 1 -13
v 1 1 -13
v 2 1 -13
v -1 1 -21
v 1 1 -21
v -2 1 -22
v 2 1 -22
v -2 3 -12
v 2 3 -12
v -2 3 -13
v 2 3 -13
v -2 8 -21
v 2 8 -21
v -2 8 -22
v 2 8 -22
v -2 11 -20
v 2 11 -20
v -2 11 -21
v 2 11 -21
v -2 14 -19
v 2 14 -19
v -2 14 -20
v 2 14 -20
v -2 17 4
v -1 17 4
v 1 17 4
v 2 17 4
v -2 17 3
v -1 17 3
v 1 17 3
v 2 17 3
v -2 17 2
v -1 17 2
v 1 17 2
v 2 17 2
v -1 17 1
v 1 17 1
v -2 17 -5
v 2 17 -5
v -2 17 -18
v 2 17 -18
v -2 17 -19
v 2 17 -19
v -1 18 4
v 1 18 4
v -1 18 3
v 1 18 3
v -1 18 2
v 1 18 2
v -1 18 1
v 1 18 1
v -2 18 -5
v 2 18 -5
v -1 18 -7
v 1 18 -7
v -2 18 -8
v -1 18 -8
v 1 18 -8
v 2 18 -8
v -1 20 -3
v 1 20 -3
v -1 20 -4
v 1 20 -4
v -2 28 23
v -1 28 23
v 1 28 23
v 2 28 23
v -2 28 22
v -1 28 22
v 1 28 22
v 2 28 22
v -1 29 23
v 1 29 23
v -2 29 22
v -1 29 22
v 1 29 22
v 2 29 22
v -1 29 21
v 1 29 21
v -1 29 20
v 1 29 20
v -2 29 -0
v 1 29 -0
v -2 29 -1
v 0 29 -1
v -2 29 -6
v 0 29 -6
v -2 29 -7
v 1 29 -7
v -2 29 -11
v 2 29 -11
v -2 29 -12
v 2 29 -12
v -2 29 -13
v 2 29 -13
v -2 29 -14
v 2 29 -14
v -2 29 -15
v 2 29 -15
v -2 29 -16
v 2 29 -16
v -2 29 -17
v 2 29 -17
v -2 29 -18
v 2 29 -18
v -2 29 -19
v 2 29 -19
v -2 29 -20
v 2 29 -20
v -2 29 -21
v -1 29 -21
v 1 29 -21
v 2 29 -21
v -2 29 -22
v -1 29 -22
v 1 29 -22
v 2 29 -22
v -2 29 -23
v 2 29 -23
v -1 30 21
v 1 30 21
v -1 30 20
v 1 30 20
v -2 30 -21
v -1 30 -21
v 1 30 -21
v 2 30 -21
v -2 30 -22
v -1 30 -22
v 1 30 -22
v 2 30 -22

# faces
f 3/4/1 2/4/1 1/4/1
f 4/4/1 2/4/1 3/4/1
f 7/4/1 6/4/1 5/4/1
f 8/4/1 6/4/1 7/4/1
f 10/4/1 6/4/1 8/4/1
f 12/4/1 10/4/1 9/4/1
f 13/4/1 6/4/1 10/4/1
f 13/4/1 10/4/1 12/4/1
f 14/4/1 6/4/1 13/4/1
f 16/4/1 12/4/1 11/4/1
f 16/4/1 13/4/1 12/4/1
f 17/4/1 13/4/1 16/4/1
f 18/4/1 13/4/1 17/4/1
f 20/4/1 16/4/1 15/4/1
f 20/4/1 17/4/1 16/4/1
f 21/4/1 17/4/1 20/4/1
f 22/4/1 17/4/1 21/4/1
f 25/4/1 24/4/1 23/4/1
f 26/4/1 24/4/1 25/4/1
f 27/4/1 24/4/1 26/4/1
f 28/4/1 24/4/1 27/4/1
f 29/4/1 24/4/1 28/4/1
f 30/4/1 20/4/1 19/4/1
f 30/4/1 21/4/1 20/4/1
f 31/4/1 21/4/1 30/4/1
f 32/4/1 21/4/1 31/4/1
f 33/4/1 29/4/1 28/4/1
f 33/4/1 31/4/1 30/4/1
f 33/4/1 30/4/1 29/4/1
f 34/4/1 31/4/1 33/4/1
f 36/4/1 31/4/1 34/4/1
f 37/4/1 31/4/1 36/4/1
f 37/4/1 36/4/1 35/4/1
f 40/4/1 27/4/1 26/4/1
f 41/4/1 27/4/1 40/4/1
f 42/4/1 38/4/1 37/4/1
f 42/4/1 37/4/1 35/4/1
f 43/4/1 38/4/1 42/4/1
f 46/4/1 43/4/1 42/4/1
f 46/4/1 44/4/1 43/4/1
f 46/4/1 42/4/1 41/4/1
f 46/4/1 41/4/1 40/4/1
f 46/4/1 40/4/1 39/4/1
f 47/4/1 44/4/1 46/4/1
f 49/4/1 47/4/1 46/4/1
f 49/4/1 48/4/1 47/4/1
f 49/4/1 46/4/1 45/4/1
f 50/4/1 48/4/1 49/4/1
f 51/4/1 48/4/1 50/4/1
f 52/4/1 48/4/1 51/4/1
f 53/4/1 48/4/1 52/4/1
f 54/4/1 48/4/1 53/4/1
f 55/4/1 48/4/1 54/4/1
f 56/4/1 48/4/1 55/4/1
f 57/4/1 48/4/1 56/4/1
f 58/4/1 48/4/1 57/4/1
f 59/4/1 48/4/1 58/4/1
f 60/4/1 48/4/1 59/4/1
f 61/2/1 50/2/1 49/2/1
f 62/2/1 50/2/1 61/2/1
f 64/2/1 61/2/1 49/2/1
f 65/1/1 62/1/1 61/1/1
f 66/1/1 62/1/1 65/1/1
f 67/2/1 64/2/1 63/2/1
f 68/2/1 61/2/1 64/2/1
f 68/2/1 64/2/1 67/2/1
f 69/2/1 61/2/1 68/2/1
f 70/1/1 65/1/1 61/1/1
f 70/2/1 61/2/1 69/2/1
f 71/2/1 66/2/1 65/2/1
f 71/1/1 65/1/1 70/1/1
f 72/1/1 62/1/1 66/1/1
f 72/2/1 66/2/1 71/2/1
f 73/2/1 50/2/1 62/2/1
f 73/1/1 62/1/1 72/1/1
f 74/1/1 51/1/1 50/1/1
f 74/2/1 50/2/1 73/2/1
f 75/2/1 52/2/1 51/2/1
f 75/1/1 51/1/1 74/1/1
f 76/1/1 53/1/1 52/1/1
f 76/2/1 52/2/1 75/2/1
f 77/2/1 54/2/1 53/2/1
f 77/1/1 53/1/1 76/1/1
f 78/1/1 55/1/1 54/1/1
f 78/2/1 54/2/1 77/2/1
f 79/2/1 56/2/1 55/2/1
f 79/1/1 55/1/1 78/1/1
f 80/1/1 57/1/1 56/1/1
f 80/2/1 56/2/1 79/2/1
f 81/2/1 58/2/1 57/2/1
f 81/1/1 57/1/1 80/1/1
f 82/1/1 59/1/1 58/1/1
f 82/2/1 58/2/1 81/2/1
f 83/2/1 60/2/1 59/2/1
f 83/1/1 59/1/1 82/1/1
f 84/2/1 60/2/1 83/2/1
f 85/2/1 60/2/1 84/2/1
f 86/2/1 60/2/1 85/2/1
f 87/2/1 85/2/1 84/2/1
f 88/2/1 85/2/1 87/2/1
f 91/4/1 90/4/1 89/4/1
f 92/4/1 90/4/1 91/4/1
f 97/4/1 94/4/1 93/4/1
f 98/4/1 94/4/1 97/4/1
f 99/4/1 96/4/1 95/4/1
f 100/4/1 96/4/1 99/4/1
f 105/4/1 102/4/1 101/4/1
f 106/4/1 102/4/1 105/4/1
f 107/4/1 104/4/1 103/4/1
f 108/4/1 104/4/1 107/4/1
f 115/4/1 110/4/1 109/4/1
f 116/4/1 110/4/1 115/4/1
f 117/4/1 112/4/1 111/4/1
f 118/4/1 112/4/1 117/4/1
f 119/4/1 107/4/1 106/4/1
f 120/4/1 107/4/1 119/4/1
f 123/4/1 114/4/1 113/4/1
f 124/4/1 114/4/1 123/4/1
f 125/4/1 122/4/1 121/4/1
f 126/4/1 122/4/1 125/4/1
f 129/2/1 128/2/1 127/2/1
f 130/2/1 128/2/1 129/2/1
f 133/2/1 132/2/1 131/2/1
f 134/2/1 132/2/1 133/2/1
f 137/2/1 136/2/1 135/2/1
f 138/2/1 136/2/1 137/2/1
f 141/2/1 140/2/1 139/2/1
f 142/2/1 140/2/1 141/2/1
f 143/2/2 144/2/2 145/2/2
f 145/2/2 144/2/2 146/2/2
f 147/4/2 148/4/2 149/4/2
f 149/4/2 148/4/2 150/4/2
f 151/4/2 152/4/2 155/4/2
f 155/4/2 152/4/2 156/4/2
f 153/4/2 154/4/2 157/4/2
f 157/4/2 154/4/2 158/4/2
f 159/4/2 160/4/2 163/4/2
f 163/4/2 160/4/2 164/4/2
f 161/4/2 162/4/2 165/4/2
f 165/4/2 162/4/2 166/4/2
f 167/4/2 168/4/2 173/4/2
f 173/4/2 168/4/2 174/4/2
f 169/4/2 170/4/2 175/4/2
f 175/4/2 170/4/2 176/4/2
f 164/4/2 165/4/2 177/4/2
f 177/4/2 165/4/2 178/4/2
f 171/4/2 172/4/2 181/4/2
f 181/4/2 172/4/2 182/4/2
f 179/4/2 180/4/2 183/4/2
f 183/4/2 180/4/2 184/4/2
f 185/2/2 186/2/2 187/2/2
f 187/2/2 186/2/2 188/2/2
f 189/2/2 190/2/2 191/2/2
f 191/2/2 190/2/2 192/2/2
f 193/2/2 194/2/2 195/2/2
f 195/2/2 194/2/2 196/2/2
f 197/4/2 198/4/2 199/4/2
f 199/4/2 198/4/2 200/4/2
f 201/4/2 202/4/2 203/4/2
f 203/4/2 202/4/2 204/4/2
f 204/4/2 202/4/2 206/4/2
f 205/4/2 206/4/2 208/4/2
f 206/4/2 202/4/2 209/4/2
f 208/4/2 206/4/2 209/4/2
f 209/4/2 202/4/2 210/4/2
f 207/4/2 208/4/2 212/4/2
f 208/4/2 209/4/2 212/4/2
f 212/4/2 209/4/2 213/4/2
f 213/4/2 209/4/2 214/4/2
f 211/4/2 212/4/2 216/4/2
f 212/4/2 213/4/2 216/4/2
f 216/4/2 213/4/2 217/4/2
f 217/4/2 213/4/2 218/4/2
f 219/4/2 220/4/2 221/4/2
f 221/4/2 220/4/2 222/4/2
f 222/4/2 220/4/2 223/4/2
f 223/4/2 220/4/2 224/4/2
f 224/4/2 220/4/2 225/4/2
f 215/4/2 216/4/2 226/4/2
f 216/4/2 217/4/2 226/4/2
f 226/4/2 217/4/2 227/4/2
f 227/4/2 217/4/2 228/4/2
f 224/4/2 225/4/2 229/4/2
f 226/4/2 227/4/2 229/4/2
f 225/4/2 226/4/2 229/4/2
f 229/4/2 227/4/2 230/4/2
f 230/4/2 227/4/2 232/4/2
f 232/4/2 227/4/2 233/4/2
f 231/4/2 232/4/2 233/4/2
f 222/4/2 223/4/2 236/4/2
f 236/4/2 223/4/2 237/4/2
f 233/4/2 234/4/2 238/4/2
f 231/4/2 233/4/2 238/4/2
f 238/4/2 234/4/2 239/4/2
f 238/4/2 239/4/2 242/4/2
f 239/4/2 240/4/2 242/4/2
f 237/4/2 238/4/2 242/4/2
f 236/4/2 237/4/2 242/4/2
f 235/4/2 236/4/2 242/4/2
f 242/4/2 240/4/2 243/4/2
f 242/4/2 243/4/2 245/4/2
f 243/4/2 244/4/2 245/4/2
f 241/4/2 242/4/2 245/4/2
f 245/4/2 244/4/2 246/4/2
f 246/4/2 244/4/2 247/4/2
f 247/4/2 244/4/2 248/4/2
f 248/4/2 244/4/2 249/4/2
f 249/4/2 244/4/2 250/4/2
f 250/4/2 244/4/2 251/4/2
f 251/4/2 244/4/2 252/4/2
f 252/4/2 244/4/2 253/4/2
f 253/4/2 244/4/2 254/4/2
f 254/4/2 244/4/2 255/4/2
f 255/4/2 244/4/2 256/4/2
f 245/2/2 246/2/2 258/2/2
f 257/2/2 258/2/2 259/2/2
f 258/2/2 246/2/2 260/2/2
f 259/2/2 258/2/2 260/2/2
f 260/2/2 246/2/2 261/2/2
f 246/1/2 247/1/2 262/1/2
f 261/2/2 246/2/2 262/2/2
f 247/2/2 248/2/2 263/2/2
f 262/1/2 247/1/2 263/1/2
f 248/1/2 249/1/2 264/1/2
f 263/2/2 248/2/2 264/2/2
f 249/2/2 250/2/2 265/2/2
f 264/1/2 249/1/2 265/1/2
f 250/1/2 251/1/2 266/1/2
f 265/2/2 250/2/2 266/2/2
f 251/2/2 252/2/2 267/2/2
f 266/1/2 251/1/2 267/1/2
f 252/1/2 253/1/2 268/1/2
f 267/2/2 252/2/2 268/2/2
f 253/2/2 254/2/2 269/2/2
f 268/1/2 253/1/2 269/1/2
f 254/1/2 255/1/2 270/1/2
f 269/2/2 254/2/2 270/2/2
f 255/2/2 256/2/2 271/2/2
f 270/1/2 255/1/2 271/1/2
f 271/2/2 256/2/2 272/2/2
f 272/2/2 256/2/2 273/2/2
f 273/2/2 256/2/2 274/2/2
f 272/2/2 273/2/2 275/2/2
f 275/2/2 273/2/2 276/2/2
f 280/2/3 278/2/3 277/2/3
f 281/2/3 278/2/3 280/2/3
f 283/2/3 280/2/3 279/2/3
f 284/3/3 281/3/3 280/3/3
f 284/2/3 280/2/3 283/2/3
f 285/2/3 282/2/3 281/2/3
f 285/3/3 281/3/3 284/3/3
f 286/2/3 282/2/3 285/2/3
f 287/2/3 285/2/3 284/2/3
f 288/2/3 285/2/3 287/2/3
f 295/4/3 290/4/3 289/4/3
f 296/2/3 291/2/3 290/2/3
f 297/2/3 291/2/3 296/2/3
f 298/2/3 293/2/3 292/2/3
f 299/2/3 293/2/3 298/2/3
f 300/4/3 295/4/3 294/4/3
f 301/4/3 290/4/3 295/4/3
f 301/4/3 295/4/3 300/4/3
f 302/2/3 296/2/3 290/2/3
f 306/4/3 290/4/3 301/4/3
f 307/2/3 303/2/3 302/2/3
f 307/4/3 290/4/3 306/4/3
f 307/2/3 302/2/3 290/2/3
f 308/2/3 303/2/3 307/2/3
f 309/2/3 305/2/3 304/2/3
f 310/2/3 305/2/3 309/2/3
f 313/2/3 312/2/3 311/2/3
f 314/2/3 312/2/3 313/2/3
f 317/4/3 316/4/3 315/4/3
f 318/4/3 316/4/3 317/4/3
f 321/4/3 320/4/3 319/4/3
f 322/4/3 320/4/3 321/4/3
f 325/4/3 324/4/3 323/4/3
f 329/4/3 325/4/3 323/4/3
f 329/4/3 326/4/3 325/4/3
f 330/4/3 326/4/3 329/4/3
f 331/4/3 328/4/3 327/4/3
f 332/4/3 328/4/3 331/4/3
f 333/4/3 329/4/3 323/4/3
f 334/4/3 329/4/3 333/4/3
f 337/4/3 336/4/3 335/4/3
f 338/4/3 336/4/3 337/4/3
f 339/4/3 336/4/3 338/4/3
f 340/4/3 336/4/3 339/4/3
f 342/4/3 339/4/3 338/4/3
f 343/4/3 339/4/3 342/4/3
f 345/4/3 342/4/3 341/4/3
f 345/4/3 344/4/3 343/4/3
f 345/4/3 343/4/3 342/4/3
f 346/4/3 344/4/3 345/4/3
f 349/4/3 348/4/3 347/4/3
f 350/4/3 348/4/3 349/4/3
f 353/4/3 352/4/3 351/4/3
f 354/4/3 352/4/3 353/4/3
f 357/4/3 356/4/3 355/4/3
f 358/4/3 356/4/3 357/4/3
f 362/4/3 360/4/3 359/4/3
f 363/4/3 360/4/3 362/4/3
f 364/4/3 362/4/3 361/4/3
f 365/4/3 362/4/3 364/4/3
f 367/4/3 366/4/3 365/4/3
f 368/4/3 366/4/3 367/4/3
f 371/4/3 370/4/3 369/4/3
f 372/4/3 370/4/3 371/4/3
f 375/4/3 374/4/3 373/4/3
f 376/4/3 374/4/3 375/4/3
f 379/4/3 378/4/3 377/4/3
f 380/4/3 378/4/3 379/4/3
f 383/4/3 382/4/3 381/4/3
f 384/4/3 382/4/3 383/4/3
f 387/4/3 386/4/3 385/4/3
f 388/4/3 386/4/3 387/4/3
f 393/4/3 390/4/3 389/4/3
f 394/4/3 390/4/3 393/4/3
f 395/4/3 392/4/3 391/4/3
f 396/4/3 392/4/3 395/4/3
f 401/4/3 398/4/3 397/4/3
f 403/4/3 401/4/3 397/4/3
f 403/4/3 402/4/3 401/4/3
f 404/4/3 402/4/3 403/4/3
f 405/4/3 403/4/3 397/4/3
f 406/4/3 403/4/3 405/4/3
f 407/4/3 400/4/3 399/4/3
f 408/4/3 400/4/3 407/4/3
f 411/2/3 410/2/3 409/2/3
f 412/2/3 410/2/3 411/2/3
f 415/2/3 414/2/3 413/2/3
f 416/2/3 414/2/3 415/2/3
f 417/2/4 418/2/4 419/2/4
f 419/2/4 418/2/4 420/2/4
f 421/4/4 422/4/4 423/4/4
f 423/4/4 422/4/4 424/4/4
f 424/4/4 422/4/4 425/4/4
f 425/4/4 422/4/4 426/4/4
f 424/4/4 425/4/4 428/4/4
f 428/4/4 425/4/4 429/4/4
f 427/4/4 428/4/4 431/4/4
f 429/4/4 430/4/4 431/4/4
f 428/4/4 429/4/4 431/4/4
f 431/4/4 430/4/4 432/4/4
f 433/4/4 434/4/4 437/4/4
f 437/4/4 434/4/4 438/4/4
f 435/4/4 436/4/4 439/4/4
f 439/4/4 436/4/4 440/4/4
f 441/4/4 442/4/4 443/4/4
f 443/4/4 442/4/4 444/4/4
f 445/4/4 446/4/4 447/4/4
f 447/4/4 446/4/4 448/4/4
f 449/4/4 450/4/4 451/4/4
f 451/4/4 450/4/4 452/4/4
f 453/4/4 454/4/4 457/4/4
f 457/4/4 454/4/4 458/4/4
f 455/4/4 456/4/4 459/4/4
f 459/4/4 456/4/4 460/4/4
f 463/4/4 464/4/4 465/4/4
f 465/4/4 464/4/4 466/4/4
f 461/4/4 462/4/4 469/4/4
f 469/4/4 462/4/4 470/4/4
f 467/4/4 468/4/4 471/4/4
f 471/4/4 468/4/4 472/4/4
f 475/4/4 476/4/4 477/4/4
f 477/4/4 476/4/4 478/4/4
f 473/4/4 474/4/4 479/4/4
f 479/4/4 474/4/4 480/4/4
f 485/2/4 486/2/4 487/2/4
f 487/2/4 486/2/4 488/2/4
f 481/4/4 482/4/4 491/4/4
f 491/4/4 482/4/4 492/4/4
f 483/4/4 484/4/4 493/4/4
f 493/4/4 484/4/4 494/4/4
f 489/2/4 490/2/4 495/2/4
f 495/2/4 490/2/4 496/2/4
f 497/4/4 498/4/4 501/4/4
f 500/4/4 501/4/4 502/4/4
f 501/4/4 498/4/4 503/4/4
f 502/4/4 501/4/4 503/4/4
f 503/4/4 498/4/4 504/4/4
f 498/2/4 499/2/4 505/2/4
f 504/4/4 498/4/4 505/4/4
f 505/2/4 499/2/4 506/2/4
f 509/4/5 508/4/5 507/4/5
f 510/4/5 508/4/5 509/4/5
f 513/4/5 512/4/5 511/4/5
f 514/4/5 512/4/5 513/4/5
f 515/4/5 513/4/5 511/4/5
f 516/4/5 512/4/5 514/4/5
f 517/4/5 515/4/5 511/4/5
f 517/4/5 516/4/5 515/4/5
f 518/4/5 512/4/5 516/4/5
f 518/4/5 516/4/5 517/4/5
f 521/4/5 520/4/5 519/4/5
f 522/4/5 520/4/5 521/4/5
f 525/4/5 524/4/5 523/4/5
f 526/4/5 524/4/5 525/4/5
f 529/4/5 528/4/5 527/4/5
f 530/4/5 528/4/5 529/4/5
f 533/4/5 532/4/5 531/4/5
f 534/4/5 532/4/5 533/4/5
f 537/4/5 536/4/5 535/4/5
f 538/4/5 536/4/5 537/4/5
f 541/4/5 540/4/5 539/4/5
f 542/4/5 540/4/5 541/4/5
f 545/4/5 544/4/5 543/4/5
f 546/4/5 544/4/5 545/4/5
f 550/4/5 548/4/5 547/4/5
f 551/4/5 548/4/5 550/4/5
f 553/4/5 550/4/5 549/4/5
f 554/4/5 550/4/5 553/4/5
f 555/4/5 552/4/5 551/4/5
f 556/4/5 552/4/5 555/4/5
f 559/4/5 558/4/5 557/4/5
f 560/4/5 558/4/5 559/4/5
f 563/4/5 562/4/5 561/4/5
f 564/4/5 562/4/5 563/4/5
f 567/4/5 566/4/5 565/4/5
f 568/4/5 566/4/5 567/4/5
f 572/4/5 570/4/5 569/4/5
f 573/4/5 570/4/5 572/4/5
f 575/4/5 572/4/5 571/4/5
f 575/4/5 574/4/5 573/4/5
f 575/4/5 573/4/5 572/4/5
f 576/4/5 574/4/5 575/4/5
f 577/4/5 575/4/5 571/4/5
f 578/4/5 575/4/5 577/4/5
f 579/4/5 574/4/5 576/4/5
f 580/4/5 574/4/5 579/4/5
f 585/4/5 582/4/5 581/4/5
f 586/4/5 584/4/5 583/4/5
f 587/4/5 585/4/5 581/4/5
f 587/4/5 586/4/5 585/4/5
f 588/4/5 584/4/5 586/4/5
f 588/4/5 586/4/5 587/4/5
f 589/4/5 587/4/5 581/4/5
f 590/4/5 587/4/5 589/4/5
f 591/4/5 584/4/5 588/4/5
f 592/4/5 584/4/5 591/4/5
f 595/4/5 594/4/5 593/4/5
f 596/4/5 594/4/5 595/4/5
f 597/4/5 594/4/5 596/4/5
f 598/4/5 594/4/5 597/4/5
f 599/4/5 597/4/5 596/4/5
f 600/4/5 597/4/5 599/4/5
f 605/4/5 602/4/5 601/4/5
f 606/4/5 602/4/5 605/4/5
f 607/4/5 604/4/5 603/4/5
f 608/4/5 604/4/5 607/4/5
f 613/4/5 610/4/5 609/4/5
f 614/4/5 610/4/5 613/4/5
f 615/4/5 612/4/5 611/4/5
f 616/4/5 612/4/5 615/4/5
f 619/2/5 618/2/5 617/2/5
f 620/2/5 618/2/5 619/2/5
f 625/2/5 622/2/5 621/2/5
f 626/2/5 622/2/5 625/2/5
f 627/2/5 624/2/5 623/2/5
f 628/2/5 624/2/5 627/2/5
f 629/4/6 630/4/6 633/4/6
f 631/4/6 632/4/6 634/4/6
f 629/4/6 633/4/6 635/4/6
f 633/4/6 634/4/6 635/4/6
f 634/4/6 632/4/6 636/4/6
f 635/4/6 634/4/6 636/4/6
f 637/4/6 638/4/6 639/4/6
f 639/4/6 638/4/6 640/4/6
f 641/4/6 642/4/6 643/4/6
f 643/4/6 642/4/6 644/4/6
f 645/4/6 646/4/6 647/4/6
f 647/4/6 646/4/6 648/4/6
f 649/4/6 650/4/6 651/4/6
f 651/4/6 650/4/6 652/4/6
f 653/4/6 654/4/6 657/4/6
f 657/4/6 654/4/6 658/4/6
f 655/4/6 656/4/6 659/4/6
f 659/4/6 656/4/6 660/4/6
f 661/4/6 662/4/6 665/4/6
f 663/4/6 664/4/6 666/4/6
f 661/4/6 665/4/6 667/4/6
f 665/4/6 666/4/6 667/4/6
f 666/4/6 664/4/6 668/4/6
f 667/4/6 666/4/6 668/4/6
f 669/4/6 670/4/6 671/4/6
f 671/4/6 670/4/6 672/4/6
f 673/4/6 674/4/6 675/4/6
f 675/4/6 674/4/6 676/4/6
f 677/4/6 678/4/6 679/4/6
f 679/4/6 678/4/6 680/4/6
f 681/4/6 682/4/6 683/4/6
f 683/4/6 682/4/6 684/4/6
f 681/4/6 683/4/6 685/4/6
f 685/4/6 683/4/6 686/4/6
f 684/4/6 682/4/6 687/4/6
f 687/4/6 682/4/6 688/4/6
f 689/4/6 690/4/6 691/4/6
f 691/4/6 690/4/6 692/4/6
f 693/2/6 694/2/6 697/2/6
f 697/2/6 694/2/6 698/2/6
f 695/2/6 696/2/6 699/2/6
f 699/2/6 696/2/6 700/2/6
f 701/2/6 702/2/6 704/2/6
f 704/2/6 702/2/6 705/2/6
f 703/2/6 704/2/6 707/2/6
f 705/2/6 706/2/6 707/2/6
f 704/2/6 705/2/6 707/2/6
f 707/2/6 706/2/6 708/2/6
f 703/2/6 707/2/6 709/2/6
f 708/2/6 706/2/6 710/2/6
f 703/2/6 709/2/6 711/2/6
f 709/2/6 710/2/6 711/2/6
f 710/2/6 706/2/6 712/2/6
f 711/2/6 710/2/6 712/2/6
f 711/1/6 712/1/6 713/1/6
f 713/1/6 712/1/6 714/1/6
f 713/2/6 714/2/6 715/2/6
f 714/1/6 712/1/6 716/1/6
f 715/2/6 714/2/6 716/2/6
f 715/1/6 716/1/6 717/1/6
f 712/2/6 706/2/6 718/2/6
f 717/1/6 716/1/6 718/1/6
f 716/1/6 712/1/6 718/1/6
f 717/2/6 718/2/6 719/2/6
f 718/2/6 706/2/6 720/2/6
f 719/2/6 718/2/6 720/2/6
f 719/1/6 720/1/6 721/1/6
f 721/1/6 720/1/6 722/1/6
f 721/2/6 722/2/6 723/2/6
f 723/2/6 722/2/6 724/2/6
f 723/1/6 724/1/6 725/1/6
f 725/1/6 724/1/6 726/1/6
f 725/2/6 726/2/6 727/2/6
f 727/2/6 726/2/6 728/2/6
f 727/1/6 728/1/6 729/1/6
f 729/1/6 728/1/6 730/1/6
f 729/2/6 730/2/6 731/2/6
f 731/2/6 730/2/6 732/2/6
f 731/1/6 732/1/6 733/1/6
f 733/1/6 732/1/6 734/1/6
f 733/2/6 734/2/6 735/2/6
f 735/2/6 734/2/6 736/2/6
f 735/1/6 736/1/6 737/1/6
f 737/1/6 736/1/6 738/1/6
f 737/2/6 738/2/6 739/2/6
f 739/2/6 738/2/6 740/2/6
f 740/2/6 738/2/6 741/2/6
f 741/2/6 738/2/6 742/2/6
f 740/2/6 741/2/6 744/2/6
f 744/2/6 741/2/6 745/2/6
f 743/2/6 744/2/6 747/2/6
f 745/2/6 746/2/6 747/2/6
f 744/2/6 745/2/6 747/2/6
f 747/2/6 746/2/6 748/2/6
f 749/2/6 750/2/6 751/2/6
f 751/2/6 750/2/6 752/2/6
f 753/2/6 754/2/6 757/2/6
f 757/2/6 754/2/6 758/2/6
f 755/2/6 756/2/6 759/2/6
f 759/2/6 756/2/6 760/2/6
