# MagicaVoxel @ Ephtracy

# material
mtllib Shell_Shotgun.mtl
usemtl palette

# normals
vn -1 0 0
vn 1 0 0
vn 0 0 1
vn 0 0 -1
vn 0 -1 0
vn 0 1 0

# texcoords
vt 0.970703 0.5
vt 0.974609 0.5
vt 0.978516 0.5
vt 0.982422 0.5

# verts
v -2 1 5
v -2 1 -3
v -2 1 -5
v -2 3 5
v -2 3 -3
v -2 3 -5
v -1 0 5
v -1 0 -3
v -1 0 -5
v -1 1 5
v -1 1 -3
v -1 1 -5
v -1 3 5
v -1 3 -3
v -1 3 -5
v -1 4 5
v -1 4 -3
v -1 4 -5
v 1 0 5
v 1 0 -3
v 1 0 -5
v 1 1 5
v 1 1 -3
v 1 1 -5
v 1 3 5
v 1 3 -3
v 1 3 -5
v 1 4 5
v 1 4 -3
v 1 4 -5
v 2 1 5
v 2 1 -3
v 2 1 -5
v 2 3 5
v 2 3 -3
v 2 3 -5
v -2 1 5
v -2 3 5
v -1 0 5
v -1 1 5
v -1 3 5
v -1 4 5
v 1 0 5
v 1 1 5
v 1 3 5
v 1 4 5
v 2 1 5
v 2 3 5
v -2 1 -5
v -2 3 -5
v -1 0 -5
v -1 1 -5
v -1 3 -5
v -1 4 -5
v 1 0 -5
v 1 1 -5
v 1 3 -5
v 1 4 -5
v 2 1 -5
v 2 3 -5
v -1 0 5
v 1 0 5
v -1 0 -3
v 1 0 -3
v -1 0 -5
v 1 0 -5
v -2 1 5
v -1 1 5
v 1 1 5
v 2 1 5
v -2 1 -3
v -1 1 -3
v 1 1 -3
v 2 1 -3
v -2 1 -5
v -1 1 -5
v 1 1 -5
v 2 1 -5
v -2 3 5
v -1 3 5
v 1 3 5
v 2 3 5
v -2 3 -3
v -1 3 -3
v 1 3 -3
v 2 3 -3
v -2 3 -5
v -1 3 -5
v 1 3 -5
v 2 3 -5
v -1 4 5
v 1 4 5
v -1 4 -3
v 1 4 -3
v -1 4 -5
v 1 4 -5

# faces
f 4/2/1 2/2/1 1/2/1
f 5/1/1 3/1/1 2/1/1
f 5/2/1 2/2/1 4/2/1
f 6/1/1 3/1/1 5/1/1
f 10/2/1 8/2/1 7/2/1
f 11/1/1 9/1/1 8/1/1
f 11/2/1 8/2/1 10/2/1
f 12/1/1 9/1/1 11/1/1
f 16/2/1 14/2/1 13/2/1
f 17/1/1 15/1/1 14/1/1
f 17/2/1 14/2/1 16/2/1
f 18/1/1 15/1/1 17/1/1
f 19/2/2 20/2/2 22/2/2
f 20/1/2 21/1/2 23/1/2
f 22/2/2 20/2/2 23/2/2
f 23/1/2 21/1/2 24/1/2
f 25/2/2 26/2/2 28/2/2
f 26/1/2 27/1/2 29/1/2
f 28/2/2 26/2/2 29/2/2
f 29/1/2 27/1/2 30/1/2
f 31/2/2 32/2/2 34/2/2
f 32/1/2 33/1/2 35/1/2
f 34/2/2 32/2/2 35/2/2
f 35/1/2 33/1/2 36/1/2
f 40/2/3 38/2/3 37/2/3
f 41/2/3 38/2/3 40/2/3
f 43/2/3 40/2/3 39/2/3
f 44/4/3 41/4/3 40/4/3
f 44/2/3 40/2/3 43/2/3
f 45/2/3 42/2/3 41/2/3
f 45/4/3 41/4/3 44/4/3
f 46/2/3 42/2/3 45/2/3
f 47/2/3 45/2/3 44/2/3
f 48/2/3 45/2/3 47/2/3
f 49/1/4 50/1/4 52/1/4
f 52/1/4 50/1/4 53/1/4
f 51/1/4 52/1/4 55/1/4
f 52/3/4 53/3/4 56/3/4
f 55/1/4 52/1/4 56/1/4
f 53/1/4 54/1/4 57/1/4
f 56/3/4 53/3/4 57/3/4
f 57/1/4 54/1/4 58/1/4
f 56/1/4 57/1/4 59/1/4
f 59/1/4 57/1/4 60/1/4
f 63/2/5 62/2/5 61/2/5
f 64/2/5 62/2/5 63/2/5
f 65/1/5 64/1/5 63/1/5
f 66/1/5 64/1/5 65/1/5
f 71/2/5 68/2/5 67/2/5
f 72/2/5 68/2/5 71/2/5
f 73/2/5 70/2/5 69/2/5
f 74/2/5 70/2/5 73/2/5
f 75/1/5 72/1/5 71/1/5
f 76/1/5 72/1/5 75/1/5
f 77/1/5 74/1/5 73/1/5
f 78/1/5 74/1/5 77/1/5
f 79/2/6 80/2/6 83/2/6
f 83/2/6 80/2/6 84/2/6
f 81/2/6 82/2/6 85/2/6
f 85/2/6 82/2/6 86/2/6
f 83/1/6 84/1/6 87/1/6
f 87/1/6 84/1/6 88/1/6
f 85/1/6 86/1/6 89/1/6
f 89/1/6 86/1/6 90/1/6
f 91/2/6 92/2/6 93/2/6
f 93/2/6 92/2/6 94/2/6
f 93/1/6 94/1/6 95/1/6
f 95/1/6 94/1/6 96/1/6
