# MagicaVoxel @ Ephtracy

# material
mtllib Shotgun_1.mtl
usemtl palette

# normals
vn -1 0 0
vn 1 0 0
vn 0 0 1
vn 0 0 -1
vn 0 -1 0
vn 0 1 0

# texcoords
vt 0.306641 0.5
vt 0.970703 0.5
vt 0.974609 0.5
vt 0.978516 0.5
vt 0.982422 0.5

# verts
v -2 0 50
v -2 0 47
v -2 1 47
v -2 1 42
v -2 1 24
v -2 1 23
v -2 2 42
v -2 2 37
v -2 2 25
v -2 2 24
v -2 2 23
v -2 2 22
v -2 3 37
v -2 3 32
v -2 3 27
v -2 3 25
v -2 4 32
v -2 4 27
v -2 4 22
v -2 4 21
v -2 5 21
v -2 5 19
v -2 6 19
v -2 6 17
v -2 6 -4
v -2 6 -9
v -2 6 -30
v -2 7 -4
v -2 7 -9
v -2 7 -30
v -2 7 -40
v -2 9 24
v -2 9 19
v -2 9 -4
v -2 9 -9
v -2 9 -30
v -2 9 -40
v -2 10 50
v -2 10 47
v -2 10 24
v -2 10 19
v -2 10 17
v -2 10 16
v -2 10 -4
v -2 10 -9
v -2 10 -14
v -2 10 -30
v -2 10 -50
v -2 11 16
v -2 11 14
v -2 11 -14
v -2 11 -30
v -2 12 14
v -2 12 12
v -2 12 -4
v -2 12 -30
v -2 12 -50
v -2 13 12
v -2 13 11
v -2 13 10
v -2 13 -4
v -2 14 11
v -2 14 10
v -1 3 16
v -1 3 11
v -1 4 17
v -1 4 16
v -1 4 14
v -1 4 13
v -1 4 11
v -1 4 9
v -1 5 15
v -1 5 14
v -1 5 13
v -1 5 11
v -1 5 9
v -1 5 6
v -1 6 17
v -1 6 16
v -1 6 15
v -1 6 14
v -1 6 9
v -1 6 6
v -1 6 -4
v -1 6 -9
v -1 6 -30
v -1 6 -40
v -1 7 -4
v -1 7 -9
v -1 7 -30
v -1 7 -40
v -1 9 -4
v -1 9 -9
v -1 9 -30
v -1 9 -40
v -1 9 -50
v -1 10 -4
v -1 10 -9
v -1 10 -30
v -1 10 -50
v -1 12 -4
v -1 12 -20
v -1 12 -30
v -1 12 -50
v -1 13 -4
v -1 13 -20
v -1 13 -48
v -1 13 -49
v -1 13 -50
v -1 14 -48
v -1 14 -49
v 1 13 11
v 1 13 10
v 1 14 11
v 1 14 10
v -1 13 11
v -1 13 10
v -1 14 11
v -1 14 10
v 1 3 16
v 1 3 11
v 1 4 17
v 1 4 16
v 1 4 14
v 1 4 13
v 1 4 11
v 1 4 9
v 1 5 15
v 1 5 14
v 1 5 13
v 1 5 11
v 1 5 9
v 1 5 6
v 1 6 17
v 1 6 16
v 1 6 15
v 1 6 14
v 1 6 9
v 1 6 6
v 1 6 -4
v 1 6 -9
v 1 6 -30
v 1 6 -40
v 1 7 -4
v 1 7 -9
v 1 7 -30
v 1 7 -40
v 1 9 -4
v 1 9 -9
v 1 9 -30
v 1 9 -40
v 1 9 -50
v 1 10 -4
v 1 10 -9
v 1 10 -30
v 1 10 -50
v 1 12 -4
v 1 12 -20
v 1 12 -30
v 1 12 -50
v 1 13 -4
v 1 13 -20
v 1 13 -48
v 1 13 -49
v 1 13 -50
v 1 14 -48
v 1 14 -49
v 2 0 50
v 2 0 47
v 2 1 47
v 2 1 42
v 2 1 24
v 2 1 23
v 2 2 42
v 2 2 37
v 2 2 25
v 2 2 24
v 2 2 23
v 2 2 22
v 2 3 37
v 2 3 32
v 2 3 27
v 2 3 25
v 2 4 32
v 2 4 27
v 2 4 22
v 2 4 21
v 2 5 21
v 2 5 19
v 2 6 19
v 2 6 17
v 2 6 -4
v 2 6 -9
v 2 6 -30
v 2 7 -4
v 2 7 -9
v 2 7 -30
v 2 7 -40
v 2 9 24
v 2 9 19
v 2 9 -4
v 2 9 -9
v 2 9 -30
v 2 9 -40
v 2 10 50
v 2 10 47
v 2 10 24
v 2 10 19
v 2 10 17
v 2 10 16
v 2 10 5
v 2 10 -1
v 2 10 -4
v 2 10 -9
v 2 10 -14
v 2 10 -30
v 2 10 -50
v 2 11 16
v 2 11 14
v 2 11 -14
v 2 11 -30
v 2 12 14
v 2 12 12
v 2 12 5
v 2 12 -1
v 2 12 -4
v 2 12 -30
v 2 12 -50
v 2 13 12
v 2 13 11
v 2 13 10
v 2 13 -4
v 2 14 11
v 2 14 10
v -2 0 50
v -2 10 50
v 2 0 50
v 2 10 50
v -2 3 27
v -2 4 27
v 2 3 27
v 2 4 27
v -2 2 25
v -2 3 25
v 2 2 25
v 2 3 25
v -2 1 24
v -2 2 24
v 2 1 24
v 2 2 24
v -2 9 19
v -2 10 19
v 2 9 19
v 2 10 19
v -1 4 17
v -1 6 17
v 1 4 17
v 1 6 17
v -2 10 16
v -2 11 16
v -1 3 16
v -1 4 16
v 1 3 16
v 1 4 16
v 2 10 16
v 2 11 16
v -1 5 15
v -1 6 15
v 1 5 15
v 1 6 15
v -2 11 14
v -2 12 14
v -1 4 14
v -1 5 14
v 1 4 14
v 1 5 14
v 2 11 14
v 2 12 14
v -2 12 12
v -2 13 12
v 2 12 12
v 2 13 12
v -2 13 11
v -2 14 11
v -1 4 11
v -1 5 11
v -1 13 11
v -1 14 11
v 1 4 11
v 1 5 11
v 1 13 11
v 1 14 11
v 2 13 11
v 2 14 11
v -1 5 9
v -1 6 9
v 1 5 9
v 1 6 9
v -2 6 -9
v -2 7 -9
v -2 9 -9
v -2 10 -9
v -1 6 -9
v -1 7 -9
v -1 9 -9
v -1 10 -9
v 1 6 -9
v 1 7 -9
v 1 9 -9
v 1 10 -9
v 2 6 -9
v 2 7 -9
v 2 9 -9
v 2 10 -9
v -1 13 -48
v -1 14 -48
v 1 13 -48
v 1 14 -48
v -2 0 47
v -2 1 47
v 2 0 47
v 2 1 47
v -2 1 42
v -2 2 42
v 2 1 42
v 2 2 42
v -2 2 37
v -2 3 37
v 2 2 37
v 2 3 37
v -2 3 32
v -2 4 32
v 2 3 32
v 2 4 32
v -2 9 24
v -2 10 24
v 2 9 24
v 2 10 24
v -2 1 23
v -2 2 23
v 2 1 23
v 2 2 23
v -2 2 22
v -2 4 22
v 2 2 22
v 2 4 22
v -2 4 21
v -2 5 21
v 2 4 21
v 2 5 21
v -2 5 19
v -2 6 19
v 2 5 19
v 2 6 19
v -1 4 16
v -1 6 16
v 1 4 16
v 1 6 16
v -1 5 14
v -1 6 14
v 1 5 14
v 1 6 14
v -1 4 13
v -1 5 13
v 1 4 13
v 1 5 13
v -1 3 11
v -1 4 11
v 1 3 11
v 1 4 11
v -2 13 10
v -2 14 10
v -1 13 10
v -1 14 10
v 1 13 10
v 1 14 10
v 2 13 10
v 2 14 10
v -1 4 9
v -1 5 9
v 1 4 9
v 1 5 9
v -1 5 6
v -1 6 6
v 1 5 6
v 1 6 6
v -2 6 -4
v -2 7 -4
v -2 9 -4
v -2 10 -4
v -2 12 -4
v -2 13 -4
v -1 6 -4
v -1 7 -4
v -1 9 -4
v -1 10 -4
v -1 12 -4
v -1 13 -4
v 1 6 -4
v 1 7 -4
v 1 9 -4
v 1 10 -4
v 1 12 -4
v 1 13 -4
v 2 6 -4
v 2 7 -4
v 2 9 -4
v 2 10 -4
v 2 12 -4
v 2 13 -4
v -2 6 -30
v -2 7 -30
v -2 9 -30
v -2 10 -30
v -1 6 -30
v -1 7 -30
v -1 9 -30
v -1 10 -30
v 1 6 -30
v 1 7 -30
v 1 9 -30
v 1 10 -30
v 2 6 -30
v 2 7 -30
v 2 9 -30
v 2 10 -30
v -2 7 -40
v -2 9 -40
v -1 6 -40
v -1 7 -40
v -1 9 -40
v 1 6 -40
v 1 7 -40
v 1 9 -40
v 2 7 -40
v 2 9 -40
v -1 13 -49
v -1 14 -49
v 1 13 -49
v 1 14 -49
v -2 10 -50
v -2 12 -50
v -1 9 -50
v -1 10 -50
v -1 12 -50
v -1 13 -50
v 1 9 -50
v 1 10 -50
v 1 12 -50
v 1 13 -50
v 2 10 -50
v 2 12 -50
v -2 0 50
v 2 0 50
v -2 0 47
v 2 0 47
v -2 1 47
v 2 1 47
v -2 1 42
v 2 1 42
v -2 1 24
v 2 1 24
v -2 1 23
v 2 1 23
v -2 2 42
v 2 2 42
v -2 2 37
v 2 2 37
v -2 2 25
v 2 2 25
v -2 2 24
v 2 2 24
v -2 2 23
v 2 2 23
v -2 2 22
v 2 2 22
v -2 3 37
v 2 3 37
v -2 3 32
v 2 3 32
v -2 3 27
v 2 3 27
v -2 3 25
v 2 3 25
v -1 3 16
v 1 3 16
v -1 3 11
v 1 3 11
v -2 4 32
v 2 4 32
v -2 4 27
v 2 4 27
v -2 4 22
v 2 4 22
v -2 4 21
v 2 4 21
v -1 4 17
v 1 4 17
v -1 4 16
v 1 4 16
v -1 4 11
v 1 4 11
v -1 4 9
v 1 4 9
v -2 5 21
v 2 5 21
v -2 5 19
v 2 5 19
v -1 5 15
v 1 5 15
v -1 5 14
v 1 5 14
v -1 5 9
v 1 5 9
v -1 5 6
v 1 5 6
v -2 6 19
v 2 6 19
v -2 6 17
v -1 6 17
v 1 6 17
v 2 6 17
v -1 6 16
v 1 6 16
v -1 6 15
v 1 6 15
v -1 6 14
v 1 6 14
v -1 6 9
v 1 6 9
v -1 6 6
v 1 6 6
v -2 6 -4
v -1 6 -4
v 1 6 -4
v 2 6 -4
v -2 6 -9
v -1 6 -9
v 1 6 -9
v 2 6 -9
v -2 6 -30
v -1 6 -30
v 1 6 -30
v 2 6 -30
v -1 6 -40
v 1 6 -40
v -2 7 -4
v -1 7 -4
v 1 7 -4
v 2 7 -4
v -2 7 -9
v -1 7 -9
v 1 7 -9
v 2 7 -9
v -2 7 -30
v -1 7 -30
v 1 7 -30
v 2 7 -30
v -2 7 -40
v -1 7 -40
v 1 7 -40
v 2 7 -40
v -1 9 -40
v 1 9 -40
v -1 9 -50
v 1 9 -50
v -2 10 -4
v -1 10 -4
v 1 10 -4
v 2 10 -4
v -2 10 -9
v -1 10 -9
v 1 10 -9
v 2 10 -9
v -2 10 -30
v -1 10 -30
v 1 10 -30
v 2 10 -30
v -2 10 -50
v -1 10 -50
v 1 10 -50
v 2 10 -50
v -1 4 16
v 1 4 16
v -1 4 14
v 1 4 14
v -1 4 13
v 1 4 13
v -1 4 11
v 1 4 11
v -1 5 14
v 1 5 14
v -1 5 13
v 1 5 13
v -1 5 11
v 1 5 11
v -1 5 9
v 1 5 9
v -2 9 24
v 2 9 24
v -2 9 19
v 2 9 19
v -2 9 -4
v -1 9 -4
v 1 9 -4
v 2 9 -4
v -2 9 -9
v -1 9 -9
v 1 9 -9
v 2 9 -9
v -2 9 -30
v -1 9 -30
v 1 9 -30
v 2 9 -30
v -2 9 -40
v -1 9 -40
v 1 9 -40
v 2 9 -40
v -2 10 50
v 2 10 50
v -2 10 47
v 2 10 47
v -2 10 24
v 2 10 24
v -2 10 19
v 2 10 19
v -2 10 17
v 2 10 17
v -2 10 16
v 2 10 16
v -2 11 16
v 2 11 16
v -2 11 14
v 2 11 14
v -2 12 14
v 2 12 14
v -2 12 12
v 2 12 12
v -2 12 -4
v -1 12 -4
v 1 12 -4
v 2 12 -4
v -1 12 -20
v 1 12 -20
v -2 12 -30
v -1 12 -30
v 1 12 -30
v 2 12 -30
v -2 12 -50
v -1 12 -50
v 1 12 -50
v 2 12 -50
v -2 13 12
v 2 13 12
v -2 13 11
v -1 13 11
v 1 13 11
v 2 13 11
v -2 13 10
v -1 13 10
v 1 13 10
v 2 13 10
v -2 13 -4
v -1 13 -4
v 1 13 -4
v 2 13 -4
v -1 13 -20
v 1 13 -20
v -1 13 -48
v 1 13 -48
v -1 13 -49
v 1 13 -49
v -1 13 -50
v 1 13 -50
v -2 14 11
v -1 14 11
v 1 14 11
v 2 14 11
v -2 14 10
v -1 14 10
v 1 14 10
v 2 14 10
v -1 14 -48
v 1 14 -48
v -1 14 -49
v 1 14 -49

# faces
f 3/5/1 2/5/1 1/5/1
f 7/2/1 4/2/1 3/2/1
f 10/2/1 6/2/1 5/2/1
f 11/2/1 6/2/1 10/2/1
f 13/2/1 8/2/1 7/2/1
f 16/2/1 12/2/1 11/2/1
f 16/2/1 10/2/1 9/2/1
f 16/2/1 11/2/1 10/2/1
f 17/2/1 14/2/1 13/2/1
f 18/2/1 16/2/1 15/2/1
f 19/2/1 12/2/1 16/2/1
f 19/2/1 16/2/1 18/2/1
f 21/2/1 18/2/1 17/2/1
f 21/2/1 20/2/1 19/2/1
f 21/2/1 19/2/1 18/2/1
f 23/2/1 22/2/1 21/2/1
f 28/3/1 25/3/1 24/3/1
f 29/2/1 27/2/1 26/2/1
f 30/2/1 27/2/1 29/2/1
f 32/2/1 21/2/1 17/2/1
f 32/2/1 23/2/1 21/2/1
f 32/2/1 24/2/1 23/2/1
f 33/2/1 24/2/1 32/2/1
f 34/3/1 29/3/1 28/3/1
f 34/3/1 28/3/1 24/3/1
f 35/2/1 30/2/1 29/2/1
f 35/3/1 29/3/1 34/3/1
f 36/1/1 31/1/1 30/1/1
f 36/2/1 30/2/1 35/2/1
f 37/1/1 31/1/1 36/1/1
f 38/5/1 3/5/1 1/5/1
f 39/2/1 17/2/1 13/2/1
f 39/5/1 3/5/1 38/5/1
f 39/2/1 7/2/1 3/2/1
f 39/2/1 13/2/1 7/2/1
f 39/2/1 32/2/1 17/2/1
f 40/2/1 32/2/1 39/2/1
f 41/2/1 24/2/1 33/2/1
f 42/3/1 34/3/1 24/3/1
f 42/2/1 24/2/1 41/2/1
f 43/3/1 34/3/1 42/3/1
f 44/3/1 34/3/1 43/3/1
f 45/2/1 36/2/1 35/2/1
f 46/2/1 36/2/1 45/2/1
f 47/2/1 36/2/1 46/2/1
f 49/3/1 44/3/1 43/3/1
f 49/3/1 46/3/1 45/3/1
f 49/3/1 45/3/1 44/3/1
f 50/3/1 46/3/1 49/3/1
f 51/2/1 47/2/1 46/2/1
f 51/3/1 46/3/1 50/3/1
f 52/1/1 48/1/1 47/1/1
f 52/2/1 47/2/1 51/2/1
f 53/3/1 51/3/1 50/3/1
f 53/3/1 52/3/1 51/3/1
f 54/3/1 52/3/1 53/3/1
f 55/3/1 52/3/1 54/3/1
f 56/1/1 48/1/1 52/1/1
f 56/3/1 52/3/1 55/3/1
f 57/1/1 48/1/1 56/1/1
f 58/3/1 55/3/1 54/3/1
f 59/3/1 55/3/1 58/3/1
f 60/3/1 55/3/1 59/3/1
f 61/3/1 55/3/1 60/3/1
f 62/3/1 60/3/1 59/3/1
f 63/3/1 60/3/1 62/3/1
f 67/3/1 65/3/1 64/3/1
f 68/3/1 65/3/1 67/3/1
f 69/3/1 65/3/1 68/3/1
f 70/3/1 65/3/1 69/3/1
f 73/3/1 69/3/1 68/3/1
f 74/3/1 69/3/1 73/3/1
f 75/3/1 71/3/1 70/3/1
f 76/3/1 71/3/1 75/3/1
f 78/3/1 67/3/1 66/3/1
f 79/3/1 67/3/1 78/3/1
f 80/3/1 73/3/1 72/3/1
f 81/3/1 73/3/1 80/3/1
f 82/3/1 77/3/1 76/3/1
f 83/3/1 77/3/1 82/3/1
f 88/3/1 85/3/1 84/3/1
f 89/3/1 85/3/1 88/3/1
f 90/1/1 87/1/1 86/1/1
f 91/1/1 87/1/1 90/1/1
f 97/3/1 93/3/1 92/3/1
f 98/3/1 93/3/1 97/3/1
f 99/1/1 95/1/1 94/1/1
f 99/1/1 96/1/1 95/1/1
f 100/1/1 96/1/1 99/1/1
f 105/3/1 102/3/1 101/3/1
f 106/1/1 104/1/1 103/1/1
f 106/3/1 102/3/1 105/3/1
f 106/1/1 103/1/1 102/1/1
f 107/1/1 104/1/1 106/1/1
f 108/1/1 104/1/1 107/1/1
f 109/1/1 104/1/1 108/1/1
f 110/3/1 108/3/1 107/3/1
f 111/3/1 108/3/1 110/3/1
f 114/3/1 113/3/1 112/3/1
f 115/3/1 113/3/1 114/3/1
f 116/3/2 117/3/2 118/3/2
f 118/3/2 117/3/2 119/3/2
f 120/3/2 121/3/2 123/3/2
f 123/3/2 121/3/2 124/3/2
f 124/3/2 121/3/2 125/3/2
f 125/3/2 121/3/2 126/3/2
f 124/3/2 125/3/2 129/3/2
f 129/3/2 125/3/2 130/3/2
f 126/3/2 127/3/2 131/3/2
f 131/3/2 127/3/2 132/3/2
f 122/3/2 123/3/2 134/3/2
f 134/3/2 123/3/2 135/3/2
f 128/3/2 129/3/2 136/3/2
f 136/3/2 129/3/2 137/3/2
f 132/3/2 133/3/2 138/3/2
f 138/3/2 133/3/2 139/3/2
f 140/3/2 141/3/2 144/3/2
f 144/3/2 141/3/2 145/3/2
f 142/1/2 143/1/2 146/1/2
f 146/1/2 143/1/2 147/1/2
f 148/3/2 149/3/2 153/3/2
f 153/3/2 149/3/2 154/3/2
f 150/1/2 151/1/2 155/1/2
f 151/1/2 152/1/2 155/1/2
f 155/1/2 152/1/2 156/1/2
f 157/3/2 158/3/2 161/3/2
f 159/1/2 160/1/2 162/1/2
f 161/3/2 158/3/2 162/3/2
f 158/1/2 159/1/2 162/1/2
f 162/1/2 160/1/2 163/1/2
f 163/1/2 160/1/2 164/1/2
f 164/1/2 160/1/2 165/1/2
f 163/3/2 164/3/2 166/3/2
f 166/3/2 164/3/2 167/3/2
f 168/5/2 169/5/2 170/5/2
f 170/2/2 171/2/2 174/2/2
f 172/2/2 173/2/2 177/2/2
f 177/2/2 173/2/2 178/2/2
f 174/2/2 175/2/2 180/2/2
f 178/2/2 179/2/2 183/2/2
f 176/2/2 177/2/2 183/2/2
f 177/2/2 178/2/2 183/2/2
f 180/2/2 181/2/2 184/2/2
f 182/2/2 183/2/2 185/2/2
f 183/2/2 179/2/2 186/2/2
f 185/2/2 183/2/2 186/2/2
f 184/2/2 185/2/2 188/2/2
f 186/2/2 187/2/2 188/2/2
f 185/2/2 186/2/2 188/2/2
f 188/2/2 189/2/2 190/2/2
f 191/3/2 192/3/2 195/3/2
f 193/2/2 194/2/2 196/2/2
f 196/2/2 194/2/2 197/2/2
f 184/2/2 188/2/2 199/2/2
f 188/2/2 190/2/2 199/2/2
f 190/2/2 191/2/2 199/2/2
f 199/2/2 191/2/2 200/2/2
f 195/3/2 196/3/2 201/3/2
f 191/3/2 195/3/2 201/3/2
f 196/2/2 197/2/2 202/2/2
f 201/3/2 196/3/2 202/3/2
f 197/1/2 198/1/2 203/1/2
f 202/2/2 197/2/2 203/2/2
f 203/1/2 198/1/2 204/1/2
f 168/5/2 170/5/2 205/5/2
f 180/2/2 184/2/2 206/2/2
f 205/5/2 170/5/2 206/5/2
f 170/2/2 174/2/2 206/2/2
f 174/2/2 180/2/2 206/2/2
f 184/2/2 199/2/2 206/2/2
f 206/2/2 199/2/2 207/2/2
f 200/2/2 191/2/2 208/2/2
f 191/3/2 201/3/2 209/3/2
f 208/2/2 191/2/2 209/2/2
f 209/3/2 201/3/2 210/3/2
f 210/3/2 201/3/2 211/3/2
f 211/3/2 201/3/2 212/3/2
f 212/3/2 201/3/2 213/3/2
f 202/2/2 203/2/2 214/2/2
f 214/2/2 203/2/2 215/2/2
f 215/2/2 203/2/2 216/2/2
f 210/3/2 211/3/2 218/3/2
f 218/3/2 211/3/2 219/3/2
f 215/2/2 216/2/2 220/2/2
f 212/3/2 213/3/2 220/3/2
f 214/3/2 215/3/2 220/3/2
f 213/3/2 214/3/2 220/3/2
f 216/1/2 217/1/2 221/1/2
f 220/2/2 216/2/2 221/2/2
f 219/3/2 211/3/2 222/3/2
f 222/3/2 211/3/2 223/3/2
f 211/4/2 212/4/2 224/4/2
f 223/3/2 211/3/2 224/3/2
f 212/3/2 220/3/2 225/3/2
f 224/4/2 212/4/2 225/4/2
f 220/3/2 221/3/2 225/3/2
f 225/3/2 221/3/2 226/3/2
f 221/1/2 217/1/2 227/1/2
f 226/3/2 221/3/2 227/3/2
f 227/1/2 217/1/2 228/1/2
f 225/3/2 226/3/2 229/3/2
f 223/3/2 224/3/2 229/3/2
f 224/3/2 225/3/2 229/3/2
f 229/3/2 226/3/2 230/3/2
f 230/3/2 226/3/2 231/3/2
f 231/3/2 226/3/2 232/3/2
f 230/3/2 231/3/2 233/3/2
f 233/3/2 231/3/2 234/3/2
f 237/5/3 236/5/3 235/5/3
f 238/5/3 236/5/3 237/5/3
f 241/2/3 240/2/3 239/2/3
f 242/2/3 240/2/3 241/2/3
f 245/2/3 244/2/3 243/2/3
f 246/2/3 244/2/3 245/2/3
f 249/2/3 248/2/3 247/2/3
f 250/2/3 248/2/3 249/2/3
f 253/2/3 252/2/3 251/2/3
f 254/2/3 252/2/3 253/2/3
f 257/3/3 256/3/3 255/3/3
f 258/3/3 256/3/3 257/3/3
f 263/3/3 262/3/3 261/3/3
f 264/3/3 262/3/3 263/3/3
f 265/3/3 260/3/3 259/3/3
f 266/3/3 260/3/3 265/3/3
f 269/3/3 268/3/3 267/3/3
f 270/3/3 268/3/3 269/3/3
f 275/3/3 274/3/3 273/3/3
f 276/3/3 274/3/3 275/3/3
f 277/3/3 272/3/3 271/3/3
f 278/3/3 272/3/3 277/3/3
f 281/3/3 280/3/3 279/3/3
f 282/3/3 280/3/3 281/3/3
f 287/3/3 284/3/3 283/3/3
f 288/3/3 284/3/3 287/3/3
f 289/3/3 286/3/3 285/3/3
f 290/3/3 286/3/3 289/3/3
f 293/3/3 292/3/3 291/3/3
f 294/3/3 292/3/3 293/3/3
f 297/3/3 296/3/3 295/3/3
f 298/3/3 296/3/3 297/3/3
f 303/2/3 300/2/3 299/2/3
f 304/2/3 300/2/3 303/2/3
f 305/2/3 302/2/3 301/2/3
f 306/2/3 302/2/3 305/2/3
f 311/2/3 308/2/3 307/2/3
f 312/2/3 308/2/3 311/2/3
f 313/2/3 310/2/3 309/2/3
f 314/2/3 310/2/3 313/2/3
f 317/3/3 316/3/3 315/3/3
f 318/3/3 316/3/3 317/3/3
f 319/5/4 320/5/4 321/5/4
f 321/5/4 320/5/4 322/5/4
f 323/2/4 324/2/4 325/2/4
f 325/2/4 324/2/4 326/2/4
f 327/2/4 328/2/4 329/2/4
f 329/2/4 328/2/4 330/2/4
f 331/2/4 332/2/4 333/2/4
f 333/2/4 332/2/4 334/2/4
f 335/2/4 336/2/4 337/2/4
f 337/2/4 336/2/4 338/2/4
f 339/2/4 340/2/4 341/2/4
f 341/2/4 340/2/4 342/2/4
f 343/2/4 344/2/4 345/2/4
f 345/2/4 344/2/4 346/2/4
f 347/2/4 348/2/4 349/2/4
f 349/2/4 348/2/4 350/2/4
f 351/2/4 352/2/4 353/2/4
f 353/2/4 352/2/4 354/2/4
f 355/3/4 356/3/4 357/3/4
f 357/3/4 356/3/4 358/3/4
f 359/3/4 360/3/4 361/3/4
f 361/3/4 360/3/4 362/3/4
f 363/3/4 364/3/4 365/3/4
f 365/3/4 364/3/4 366/3/4
f 367/3/4 368/3/4 369/3/4
f 369/3/4 368/3/4 370/3/4
f 371/3/4 372/3/4 373/3/4
f 373/3/4 372/3/4 374/3/4
f 375/3/4 376/3/4 377/3/4
f 377/3/4 376/3/4 378/3/4
f 379/3/4 380/3/4 381/3/4
f 381/3/4 380/3/4 382/3/4
f 383/3/4 384/3/4 385/3/4
f 385/3/4 384/3/4 386/3/4
f 387/3/4 388/3/4 393/3/4
f 393/3/4 388/3/4 394/3/4
f 389/3/4 390/3/4 395/3/4
f 395/3/4 390/3/4 396/3/4
f 391/3/4 392/3/4 397/3/4
f 397/3/4 392/3/4 398/3/4
f 399/3/4 400/3/4 405/3/4
f 405/3/4 400/3/4 406/3/4
f 401/3/4 402/3/4 407/3/4
f 407/3/4 402/3/4 408/3/4
f 403/3/4 404/3/4 409/3/4
f 409/3/4 404/3/4 410/3/4
f 411/2/4 412/2/4 415/2/4
f 415/2/4 412/2/4 416/2/4
f 413/2/4 414/2/4 417/2/4
f 417/2/4 414/2/4 418/2/4
f 419/2/4 420/2/4 423/2/4
f 423/2/4 420/2/4 424/2/4
f 421/2/4 422/2/4 425/2/4
f 425/2/4 422/2/4 426/2/4
f 427/1/4 428/1/4 430/1/4
f 430/1/4 428/1/4 431/1/4
f 429/1/4 430/1/4 432/1/4
f 430/1/4 431/1/4 432/1/4
f 432/1/4 431/1/4 433/1/4
f 433/1/4 431/1/4 434/1/4
f 433/1/4 434/1/4 435/1/4
f 435/1/4 434/1/4 436/1/4
f 437/3/4 438/3/4 439/3/4
f 439/3/4 438/3/4 440/3/4
f 441/1/4 442/1/4 444/1/4
f 444/1/4 442/1/4 445/1/4
f 443/1/4 444/1/4 447/1/4
f 444/4/4 445/4/4 448/4/4
f 447/1/4 444/1/4 448/1/4
f 445/1/4 446/1/4 449/1/4
f 448/4/4 445/4/4 449/4/4
f 449/1/4 446/1/4 450/1/4
f 448/1/4 449/1/4 451/1/4
f 451/1/4 449/1/4 452/1/4
f 455/5/5 454/5/5 453/5/5
f 456/5/5 454/5/5 455/5/5
f 459/2/5 458/2/5 457/2/5
f 460/2/5 458/2/5 459/2/5
f 463/2/5 462/2/5 461/2/5
f 464/2/5 462/2/5 463/2/5
f 467/2/5 466/2/5 465/2/5
f 468/2/5 466/2/5 467/2/5
f 471/2/5 470/2/5 469/2/5
f 472/2/5 470/2/5 471/2/5
f 475/2/5 474/2/5 473/2/5
f 476/2/5 474/2/5 475/2/5
f 479/2/5 478/2/5 477/2/5
f 480/2/5 478/2/5 479/2/5
f 483/2/5 482/2/5 481/2/5
f 484/2/5 482/2/5 483/2/5
f 487/3/5 486/3/5 485/3/5
f 488/3/5 486/3/5 487/3/5
f 491/2/5 490/2/5 489/2/5
f 492/2/5 490/2/5 491/2/5
f 495/2/5 494/2/5 493/2/5
f 496/2/5 494/2/5 495/2/5
f 499/3/5 498/3/5 497/3/5
f 500/3/5 498/3/5 499/3/5
f 503/3/5 502/3/5 501/3/5
f 504/3/5 502/3/5 503/3/5
f 507/2/5 506/2/5 505/2/5
f 508/2/5 506/2/5 507/2/5
f 511/3/5 510/3/5 509/3/5
f 512/3/5 510/3/5 511/3/5
f 515/3/5 514/3/5 513/3/5
f 516/3/5 514/3/5 515/3/5
f 519/2/5 518/2/5 517/2/5
f 520/2/5 518/2/5 519/2/5
f 521/2/5 518/2/5 520/2/5
f 522/2/5 518/2/5 521/2/5
f 523/3/5 520/3/5 519/3/5
f 524/3/5 522/3/5 521/3/5
f 525/3/5 523/3/5 519/3/5
f 525/3/5 524/3/5 523/3/5
f 526/3/5 522/3/5 524/3/5
f 526/3/5 524/3/5 525/3/5
f 527/3/5 525/3/5 519/3/5
f 528/3/5 522/3/5 526/3/5
f 529/3/5 527/3/5 519/3/5
f 529/3/5 528/3/5 527/3/5
f 530/3/5 522/3/5 528/3/5
f 530/3/5 528/3/5 529/3/5
f 531/3/5 529/3/5 519/3/5
f 532/3/5 522/3/5 530/3/5
f 533/3/5 531/3/5 519/3/5
f 533/3/5 532/3/5 531/3/5
f 534/3/5 532/3/5 533/3/5
f 535/3/5 522/3/5 532/3/5
f 535/3/5 532/3/5 534/3/5
f 536/3/5 522/3/5 535/3/5
f 538/3/5 535/3/5 534/3/5
f 539/3/5 535/3/5 538/3/5
f 541/2/5 538/2/5 537/2/5
f 541/2/5 540/2/5 539/2/5
f 541/2/5 539/2/5 538/2/5
f 542/2/5 540/2/5 541/2/5
f 543/2/5 540/2/5 542/2/5
f 544/2/5 540/2/5 543/2/5
f 545/1/5 543/1/5 542/1/5
f 546/1/5 543/1/5 545/1/5
f 551/3/5 548/3/5 547/3/5
f 552/3/5 548/3/5 551/3/5
f 553/3/5 550/3/5 549/3/5
f 554/3/5 550/3/5 553/3/5
f 559/1/5 556/1/5 555/1/5
f 560/1/5 556/1/5 559/1/5
f 561/1/5 558/1/5 557/1/5
f 562/1/5 558/1/5 561/1/5
f 565/1/5 564/1/5 563/1/5
f 566/1/5 564/1/5 565/1/5
f 571/3/5 568/3/5 567/3/5
f 572/3/5 568/3/5 571/3/5
f 573/3/5 570/3/5 569/3/5
f 574/3/5 570/3/5 573/3/5
f 579/1/5 576/1/5 575/1/5
f 580/1/5 576/1/5 579/1/5
f 581/1/5 578/1/5 577/1/5
f 582/1/5 578/1/5 581/1/5
f 583/3/6 584/3/6 585/3/6
f 585/3/6 584/3/6 586/3/6
f 587/3/6 588/3/6 589/3/6
f 589/3/6 588/3/6 590/3/6
f 591/3/6 592/3/6 593/3/6
f 593/3/6 592/3/6 594/3/6
f 595/3/6 596/3/6 597/3/6
f 597/3/6 596/3/6 598/3/6
f 599/2/6 600/2/6 601/2/6
f 601/2/6 600/2/6 602/2/6
f 603/3/6 604/3/6 607/3/6
f 607/3/6 604/3/6 608/3/6
f 605/3/6 606/3/6 609/3/6
f 609/3/6 606/3/6 610/3/6
f 611/1/6 612/1/6 615/1/6
f 615/1/6 612/1/6 616/1/6
f 613/1/6 614/1/6 617/1/6
f 617/1/6 614/1/6 618/1/6
f 619/5/6 620/5/6 621/5/6
f 621/5/6 620/5/6 622/5/6
f 621/2/6 622/2/6 623/2/6
f 623/2/6 622/2/6 624/2/6
f 625/2/6 626/2/6 627/2/6
f 627/2/6 626/2/6 628/2/6
f 627/3/6 628/3/6 629/3/6
f 629/3/6 628/3/6 630/3/6
f 631/3/6 632/3/6 633/3/6
f 633/3/6 632/3/6 634/3/6
f 635/3/6 636/3/6 637/3/6
f 637/3/6 636/3/6 638/3/6
f 639/3/6 640/3/6 643/3/6
f 641/3/6 642/3/6 644/3/6
f 639/3/6 643/3/6 645/3/6
f 645/3/6 643/3/6 646/3/6
f 644/3/6 642/3/6 647/3/6
f 647/3/6 642/3/6 648/3/6
f 645/1/6 646/1/6 649/1/6
f 649/1/6 646/1/6 650/1/6
f 647/1/6 648/1/6 651/1/6
f 651/1/6 648/1/6 652/1/6
f 653/3/6 654/3/6 655/3/6
f 655/3/6 654/3/6 656/3/6
f 656/3/6 654/3/6 657/3/6
f 657/3/6 654/3/6 658/3/6
f 656/3/6 657/3/6 660/3/6
f 660/3/6 657/3/6 661/3/6
f 659/3/6 660/3/6 663/3/6
f 661/3/6 662/3/6 663/3/6
f 660/3/6 661/3/6 663/3/6
f 663/3/6 662/3/6 664/3/6
f 664/3/6 662/3/6 665/3/6
f 665/3/6 662/3/6 666/3/6
f 664/3/6 665/3/6 667/3/6
f 667/3/6 665/3/6 668/3/6
f 667/1/6 668/1/6 669/1/6
f 669/1/6 668/1/6 670/1/6
f 671/1/6 672/1/6 673/1/6
f 673/1/6 672/1/6 674/1/6
f 675/3/6 676/3/6 679/3/6
f 679/3/6 676/3/6 680/3/6
f 677/3/6 678/3/6 681/3/6
f 681/3/6 678/3/6 682/3/6
f 683/3/6 684/3/6 685/3/6
f 685/3/6 684/3/6 686/3/6
